Jinko-Light.ufo
<glyph name="exclam" format="1">
  <advance width="449"/>
  <unicode hex="0021"/>
  <outline>
    <contour>
      <point x="224" y="-2" type="curve" smooth="yes"/>
      <point x="306" y="-2"/>
      <point x="374" y="63"/>
      <point x="374" y="146" type="curve" smooth="yes"/>
      <point x="374" y="228"/>
      <point x="306" y="294"/>
      <point x="224" y="294" type="curve" smooth="yes"/>
      <point x="142" y="294"/>
      <point x="75" y="228"/>
      <point x="75" y="146" type="curve" smooth="yes"/>
      <point x="75" y="63"/>
      <point x="142" y="-2"/>
    </contour>
    <contour>
      <point x="194" y="464" type="line"/>
      <point x="260" y="464" type="line"/>
      <point x="328" y="1481" type="line"/>
      <point x="126" y="1481" type="line"/>
    </contour>
  </outline>
</glyph>
<glyph name="dollar" format="1">
  <advance width="1171"/>
  <unicode hex="0024"/>
  <outline>
    <contour>
      <point x="568" y="-102" type="line"/>
      <point x="670" y="-102" type="line"/>
      <point x="670" y="-19" type="line"/>
      <point x="934" y="16"/>
      <point x="1118" y="125"/>
      <point x="1118" y="372" type="curve" smooth="yes"/>
      <point x="1118" y="619"/>
      <point x="984" y="727"/>
      <point x="671" y="826" type="curve"/>
      <point x="671" y="1424" type="line"/>
      <point x="802" y="1421"/>
      <point x="945" y="1361"/>
      <point x="1068" y="1279" type="curve"/>
      <point x="1088" y="1279" type="line"/>
      <point x="1104" y="1420" type="line"/>
      <point x="975" y="1491"/>
      <point x="839" y="1536"/>
      <point x="670" y="1547" type="curve"/>
      <point x="670" y="1645" type="line"/>
      <point x="568" y="1645" type="line"/>
      <point x="568" y="1545" type="line"/>
      <point x="294" y="1524"/>
      <point x="99" y="1386"/>
      <point x="99" y="1122" type="curve" smooth="yes"/>
      <point x="99" y="905"/>
      <point x="254" y="781"/>
      <point x="566" y="692" type="curve"/>
      <point x="566" y="104" type="line"/>
      <point x="420" y="105"/>
      <point x="228" y="151"/>
      <point x="92" y="299" type="curve"/>
      <point x="68" y="299" type="line"/>
      <point x="46" y="128" type="line"/>
      <point x="192" y="33"/>
      <point x="328" y="-23"/>
      <point x="568" y="-25" type="curve"/>
    </contour>
    <contour>
      <point x="674" y="109" type="curve" smooth="yes"/>
      <point x="671" y="109"/>
      <point x="671" y="109"/>
      <point x="673" y="110" type="curve"/>
      <point x="673" y="666" type="line"/>
      <point x="915" y="590"/>
      <point x="969" y="495"/>
      <point x="969" y="366" type="curve" smooth="yes"/>
      <point x="969" y="268"/>
      <point x="918" y="130"/>
    </contour>
    <contour>
      <point x="564" y="858" type="line"/>
      <point x="331" y="914"/>
      <point x="243" y="1013"/>
      <point x="243" y="1140" type="curve" smooth="yes"/>
      <point x="243" y="1259"/>
      <point x="325" y="1401"/>
      <point x="564" y="1417" type="curve"/>
    </contour>
  </outline>
</glyph>
<glyph name="percent" format="1">
  <advance width="1705"/>
  <unicode hex="0025"/>
  <outline>
    <contour>
      <point x="309" y="767" type="curve" smooth="yes"/>
      <point x="181" y="767"/>
      <point x="119" y="847"/>
      <point x="119" y="1049" type="curve" smooth="yes"/>
      <point x="119" y="1269"/>
      <point x="184" y="1345"/>
      <point x="307" y="1345" type="curve" smooth="yes"/>
      <point x="435" y="1345"/>
      <point x="494" y="1269"/>
      <point x="494" y="1064" type="curve" smooth="yes"/>
      <point x="494" y="848"/>
      <point x="431" y="767"/>
    </contour>
    <contour>
      <point x="307" y="676" type="curve" smooth="yes"/>
      <point x="537" y="676"/>
      <point x="612" y="845"/>
      <point x="612" y="1059" type="curve" smooth="yes"/>
      <point x="612" y="1268"/>
      <point x="546" y="1428"/>
      <point x="309" y="1429" type="curve"/>
      <point x="72" y="1426"/>
      <point x="0" y="1261"/>
      <point x="0" y="1049" type="curve" smooth="yes"/>
      <point x="0" y="838"/>
      <point x="71" y="676"/>
    </contour>
    <contour>
      <point x="414" y="0" type="line"/>
      <point x="553" y="0" type="line"/>
      <point x="1282" y="1429" type="line"/>
      <point x="1145" y="1429" type="line"/>
    </contour>
    <contour>
      <point x="1400" y="91" type="curve" smooth="yes"/>
      <point x="1272" y="91"/>
      <point x="1213" y="171"/>
      <point x="1213" y="373" type="curve" smooth="yes"/>
      <point x="1213" y="593"/>
      <point x="1277" y="667"/>
      <point x="1400" y="667" type="curve" smooth="yes"/>
      <point x="1528" y="667"/>
      <point x="1588" y="592"/>
      <point x="1588" y="387" type="curve" smooth="yes"/>
      <point x="1588" y="171"/>
      <point x="1522" y="91"/>
    </contour>
    <contour>
      <point x="1400" y="-1" type="curve" smooth="yes"/>
      <point x="1630" y="-1"/>
      <point x="1706" y="170"/>
      <point x="1706" y="384" type="curve" smooth="yes"/>
      <point x="1706" y="593"/>
      <point x="1637" y="752"/>
      <point x="1400" y="753" type="curve"/>
      <point x="1163" y="750"/>
      <point x="1092" y="585"/>
      <point x="1092" y="373" type="curve" smooth="yes"/>
      <point x="1092" y="162"/>
      <point x="1164" y="-1"/>
    </contour>
  </outline>
</glyph>
<glyph name="ampersand" format="1">
  <advance width="1416"/>
  <unicode hex="0026"/>
  <outline>
    <contour>
      <point x="611.0" y="-23.0" type="curve" smooth="yes"/>
      <point x="769.0" y="-23.0"/>
      <point x="923.0" y="17.0"/>
      <point x="1054.0" y="115.0" type="curve"/>
      <point x="1115.0" y="58.0"/>
      <point x="1167.0" y="0.0"/>
      <point x="1167.0" y="0.0" type="curve"/>
      <point x="1376.0" y="0.0" type="line"/>
      <point x="1376.0" y="0.0"/>
      <point x="1159.0" y="196.0"/>
      <point x="1160.0" y="195.0" type="curve"/>
      <point x="1277.0" y="306.0"/>
      <point x="1340.0" y="479.0"/>
      <point x="1340.0" y="643.0" type="curve"/>
      <point x="1215.0" y="688.0" type="line"/>
      <point x="1215.0" y="565.0"/>
      <point x="1159.0" y="355.0"/>
      <point x="1062.0" y="289.0" type="curve"/>
      <point x="586.0" y="750.0" type="line"/>
      <point x="909.0" y="874.0"/>
      <point x="1005.0" y="1041.0"/>
      <point x="1005.0" y="1168.0" type="curve"/>
      <point x="1013.0" y="1347.0"/>
      <point x="891.0" y="1493.0"/>
      <point x="609.0" y="1503.0" type="curve"/>
      <point x="257.0" y="1503.0"/>
      <point x="153.0" y="1318.0"/>
      <point x="153.0" y="1154.0" type="curve" smooth="yes"/>
      <point x="153.0" y="1013.0"/>
      <point x="285.0" y="895.0"/>
      <point x="374.0" y="812.0" type="curve"/>
      <point x="160.0" y="731.0"/>
      <point x="52.0" y="619.0"/>
      <point x="52.0" y="419.0" type="curve" smooth="yes"/>
      <point x="52.0" y="156.0"/>
      <point x="260.0" y="-23.0"/>
    </contour>
    <contour>
      <point x="630.0" y="126.0" type="curve" smooth="yes"/>
      <point x="301.0" y="126.0"/>
      <point x="197.0" y="261.0"/>
      <point x="197.0" y="411.0" type="curve" smooth="yes"/>
      <point x="197.0" y="593.0"/>
      <point x="345.0" y="656.0"/>
      <point x="453.0" y="694.0" type="curve"/>
      <point x="950.0" y="209.0" type="line"/>
      <point x="843.0" y="146.0"/>
      <point x="783.0" y="126.0"/>
    </contour>
    <contour>
      <point x="496.0" y="851.0" type="curve"/>
      <point x="364.0" y="996.0"/>
      <point x="309.0" y="1063.0"/>
      <point x="309.0" y="1150.0" type="curve"/>
      <point x="316.0" y="1277.0"/>
      <point x="392.0" y="1359.0"/>
      <point x="586.0" y="1366.0" type="curve"/>
      <point x="816.0" y="1366.0"/>
      <point x="862.0" y="1273.0"/>
      <point x="862.0" y="1170.0" type="curve" smooth="yes"/>
      <point x="862.0" y="1061.0"/>
      <point x="760.0" y="932.0"/>
    </contour>
  </outline>
</glyph>
<glyph name="quotesingle" format="1">
  <advance width="385"/>
  <unicode hex="0027"/>
  <outline>
    <contour>
      <point x="128" y="894" type="line"/>
      <point x="227" y="894" type="line"/>
      <point x="303" y="1481" type="line"/>
      <point x="88" y="1481" type="line"/>
    </contour>
  </outline>
</glyph>
<glyph name="parenleft" format="1">
  <advance width="478"/>
  <unicode hex="0028"/>
  <outline>
    <contour>
      <point x="346" y="-311" type="curve"/>
      <point x="481" y="-311" type="line"/>
      <point x="477" y="-295"/>
      <point x="484" y="-279"/>
      <point x="484" y="-261" type="curve" smooth="yes"/>
      <point x="484" y="-258"/>
      <point x="483" y="-256"/>
      <point x="483" y="-253" type="curve"/>
      <point x="330" y="-77"/>
      <point x="162" y="198"/>
      <point x="162" y="549" type="curve" smooth="yes"/>
      <point x="162" y="888"/>
      <point x="312" y="1146"/>
      <point x="483" y="1335" type="curve"/>
      <point x="483" y="1338"/>
      <point x="484" y="1340"/>
      <point x="484" y="1343" type="curve" smooth="yes"/>
      <point x="484" y="1360"/>
      <point x="477" y="1376"/>
      <point x="481" y="1391" type="curve"/>
      <point x="346" y="1391" type="line"/>
      <point x="141" y="1158"/>
      <point x="3" y="887"/>
      <point x="3" y="553" type="curve" smooth="yes"/>
      <point x="3" y="175"/>
      <point x="139" y="-78"/>
    </contour>
  </outline>
</glyph>
<glyph name="parenright" format="1">
  <advance width="521"/>
  <unicode hex="0029"/>
  <outline>
    <contour>
      <point x="-3" y="-311" type="curve"/>
      <point x="180" y="-311" type="line"/>
      <point x="385" y="-78"/>
      <point x="519" y="194"/>
      <point x="519" y="539" type="curve" smooth="yes"/>
      <point x="519" y="909"/>
      <point x="385" y="1158"/>
      <point x="180" y="1391" type="curve"/>
      <point x="-3" y="1391" type="line"/>
      <point x="1" y="1375"/>
      <point x="-5" y="1361"/>
      <point x="-5" y="1344" type="curve" smooth="yes"/>
      <point x="-5" y="1341"/>
      <point x="-4" y="1338"/>
      <point x="-4" y="1335" type="curve"/>
      <point x="154" y="1157"/>
      <point x="318" y="886"/>
      <point x="318" y="539" type="curve" smooth="yes"/>
      <point x="318" y="198"/>
      <point x="164" y="-67"/>
      <point x="-4" y="-253" type="curve"/>
      <point x="-4" y="-256"/>
      <point x="-5" y="-259"/>
      <point x="-5" y="-262" type="curve" smooth="yes"/>
      <point x="-5" y="-278"/>
      <point x="1" y="-295"/>
    </contour>
  </outline>
</glyph>
<glyph name="asterisk" format="1">
  <advance width="982"/>
  <unicode hex="002A"/>
  <outline>
    <contour>
      <point x="470" y="590" type="curve"/>
      <point x="524" y="590"/>
      <point x="580" y="617"/>
      <point x="594" y="669" type="curve"/>
      <point x="594" y="760"/>
      <point x="551" y="871"/>
      <point x="535" y="960" type="curve"/>
      <point x="596" y="908"/>
      <point x="666" y="815"/>
      <point x="735" y="773" type="curve" smooth="yes"/>
      <point x="756" y="761"/>
      <point x="776" y="754"/>
      <point x="797" y="752" type="curve"/>
      <point x="842" y="764"/>
      <point x="885" y="809"/>
      <point x="895" y="861" type="curve"/>
      <point x="886" y="983"/>
      <point x="685" y="986"/>
      <point x="573" y="1036" type="curve"/>
      <point x="684" y="1085"/>
      <point x="890" y="1096"/>
      <point x="895" y="1213" type="curve"/>
      <point x="885" y="1262"/>
      <point x="843" y="1308"/>
      <point x="797" y="1321" type="curve"/>
      <point x="710" y="1315"/>
      <point x="624" y="1193"/>
      <point x="551" y="1124" type="curve" smooth="yes"/>
      <point x="545" y="1119"/>
      <point x="539" y="1115"/>
      <point x="534" y="1112" type="curve"/>
      <point x="550" y="1197"/>
      <point x="593" y="1294"/>
      <point x="593" y="1379" type="curve" smooth="yes"/>
      <point x="593" y="1448"/>
      <point x="543" y="1481"/>
      <point x="494" y="1481" type="curve" smooth="yes"/>
      <point x="450" y="1481"/>
      <point x="402" y="1453"/>
      <point x="389" y="1404" type="curve"/>
      <point x="389" y="1309"/>
      <point x="438" y="1206"/>
      <point x="448" y="1111" type="curve"/>
      <point x="383" y="1163"/>
      <point x="317" y="1256"/>
      <point x="247" y="1298" type="curve" smooth="yes"/>
      <point x="226" y="1311"/>
      <point x="206" y="1319"/>
      <point x="185" y="1321" type="curve"/>
      <point x="139" y="1308"/>
      <point x="97" y="1262"/>
      <point x="87" y="1213" type="curve"/>
      <point x="92" y="1094"/>
      <point x="294" y="1085"/>
      <point x="409" y="1036" type="curve"/>
      <point x="296" y="988"/>
      <point x="96" y="980"/>
      <point x="87" y="861" type="curve"/>
      <point x="97" y="809"/>
      <point x="139" y="764"/>
      <point x="185" y="752" type="curve"/>
      <point x="268" y="758"/>
      <point x="357" y="878"/>
      <point x="430" y="948" type="curve" smooth="yes"/>
      <point x="436" y="953"/>
      <point x="444" y="958"/>
      <point x="447" y="961" type="curve"/>
      <point x="434" y="879"/>
      <point x="389" y="777"/>
      <point x="389" y="694" type="curve" smooth="yes"/>
      <point x="389" y="634"/>
      <point x="430" y="599"/>
    </contour>
  </outline>
</glyph>
<glyph name="plus" format="1">
  <advance width="1197"/>
  <unicode hex="002B"/>
  <outline>
    <contour>
      <point x="525" y="82" type="line"/>
      <point x="659" y="82" type="line"/>
      <point x="659" y="496" type="line"/>
      <point x="1102" y="496" type="line"/>
      <point x="1102" y="629" type="line"/>
      <point x="659" y="629" type="line"/>
      <point x="659" y="1032" type="line"/>
      <point x="525" y="1032" type="line"/>
      <point x="525" y="629" type="line"/>
      <point x="94" y="629" type="line"/>
      <point x="94" y="496" type="line"/>
      <point x="525" y="496" type="line"/>
    </contour>
  </outline>
</glyph>
<glyph name="comma" format="1">
  <advance width="395"/>
  <unicode hex="002C"/>
  <outline>
    <contour>
      <point x="58" y="-235" type="line"/>
      <point x="164" y="-235" type="line"/>
      <point x="348" y="338" type="line"/>
      <point x="117" y="338" type="line"/>
    </contour>
  </outline>
</glyph>
<glyph name="hyphen" format="1">
  <advance width="843"/>
  <unicode hex="002D"/>
  <outline>
    <contour>
      <point x="99" y="598" type="line"/>
      <point x="744" y="598" type="line"/>
      <point x="744" y="714" type="line"/>
      <point x="99" y="714" type="line"/>
    </contour>
  </outline>
</glyph>
<glyph name="period" format="1">
  <advance width="483"/>
  <unicode hex="002E"/>
  <outline>
    <contour>
      <point x="243" y="-2" type="curve" smooth="yes"/>
      <point x="325" y="-2"/>
      <point x="391" y="63"/>
      <point x="391" y="146" type="curve" smooth="yes"/>
      <point x="391" y="228"/>
      <point x="325" y="294"/>
      <point x="243" y="294" type="curve" smooth="yes"/>
      <point x="160" y="294"/>
      <point x="92" y="228"/>
      <point x="92" y="146" type="curve" smooth="yes"/>
      <point x="92" y="63"/>
      <point x="160" y="-2"/>
    </contour>
  </outline>
</glyph>
<glyph name="slash" format="1">
  <advance width="854"/>
  <unicode hex="002F"/>
  <outline>
    <contour>
      <point x="-8" y="0" type="line"/>
      <point x="160" y="0" type="line"/>
      <point x="860" y="1481" type="line"/>
      <point x="696" y="1481" type="line"/>
    </contour>
  </outline>
</glyph>
<glyph name="one" format="1">
  <advance width="995"/>
  <unicode hex="0031"/>
  <outline>
    <contour>
      <point x="174" y="0" type="line"/>
      <point x="903" y="0" type="line"/>
      <point x="903" y="133" type="line"/>
      <point x="629" y="133" type="line"/>
      <point x="629" y="1481" type="line"/>
      <point x="471" y="1481" type="line"/>
      <point x="440" y="1410"/>
      <point x="387" y="1361"/>
      <point x="174" y="1318" type="curve"/>
      <point x="174" y="1194" type="line"/>
      <point x="452" y="1267" type="line"/>
      <point x="452" y="133" type="line"/>
      <point x="174" y="133" type="line"/>
    </contour>
  </outline>
</glyph>
<glyph name="three" format="1">
  <advance width="1232"/>
  <unicode hex="0033"/>
  <outline>
    <contour>
      <point x="588" y="-23" type="curve" smooth="yes"/>
      <point x="942" y="-23"/>
      <point x="1147" y="108"/>
      <point x="1147" y="407" type="curve" smooth="yes"/>
      <point x="1147" y="614"/>
      <point x="977" y="755"/>
      <point x="842" y="800" type="curve"/>
      <point x="979" y="846"/>
      <point x="1093" y="939"/>
      <point x="1093" y="1135" type="curve" smooth="yes"/>
      <point x="1093" y="1317"/>
      <point x="945" y="1504"/>
      <point x="594" y="1504" type="curve" smooth="yes"/>
      <point x="415" y="1504"/>
      <point x="249" y="1468"/>
      <point x="152" y="1400" type="curve"/>
      <point x="152" y="1284" type="line"/>
      <point x="201" y="1284" type="line"/>
      <point x="201" y="1284"/>
      <point x="303" y="1371"/>
      <point x="582" y="1371" type="curve" smooth="yes"/>
      <point x="845" y="1371"/>
      <point x="918" y="1263"/>
      <point x="918" y="1113" type="curve" smooth="yes"/>
      <point x="918" y="978"/>
      <point x="827" y="853"/>
      <point x="549" y="853" type="curve" smooth="yes"/>
      <point x="404" y="853" type="line"/>
      <point x="404" y="732" type="line"/>
      <point x="561" y="732" type="line" smooth="yes"/>
      <point x="841" y="732"/>
      <point x="969" y="594"/>
      <point x="969" y="395" type="curve" smooth="yes"/>
      <point x="969" y="172"/>
      <point x="796" y="111"/>
      <point x="599" y="111" type="curve" smooth="yes"/>
      <point x="423" y="111"/>
      <point x="284" y="151"/>
      <point x="195" y="214" type="curve"/>
      <point x="152" y="214" type="line"/>
      <point x="152" y="87" type="line"/>
      <point x="195" y="56"/>
      <point x="367" y="-23"/>
    </contour>
  </outline>
</glyph>
<glyph name="four" format="1">
  <advance width="1227"/>
  <unicode hex="0034"/>
  <outline>
    <contour>
      <point x="796" y="0" type="line"/>
      <point x="974" y="0" type="line"/>
      <point x="974" y="246" type="line"/>
      <point x="1118" y="246" type="line"/>
      <point x="1118" y="378" type="line"/>
      <point x="974" y="378" type="line"/>
      <point x="974" y="1481" type="line"/>
      <point x="731" y="1481" type="line"/>
      <point x="79" y="387" type="line"/>
      <point x="79" y="246" type="line"/>
      <point x="796" y="246" type="line"/>
    </contour>
    <contour>
      <point x="241" y="378" type="line"/>
      <point x="796" y="1300" type="line"/>
      <point x="796" y="378" type="line"/>
    </contour>
  </outline>
</glyph>
<glyph name="five" format="1">
  <advance width="1282"/>
  <unicode hex="0035"/>
  <outline>
    <contour>
      <point x="625" y="-23" type="curve" smooth="yes"/>
      <point x="959" y="-23"/>
      <point x="1154" y="126"/>
      <point x="1154" y="419" type="curve" smooth="yes"/>
      <point x="1154" y="725"/>
      <point x="902" y="885"/>
      <point x="495" y="906" type="curve" smooth="yes"/>
      <point x="464" y="908"/>
      <point x="372" y="914"/>
      <point x="372" y="915" type="curve" smooth="yes"/>
      <point x="372" y="1348" type="line"/>
      <point x="1021" y="1348" type="line"/>
      <point x="1021" y="1481" type="line"/>
      <point x="216" y="1481" type="line"/>
      <point x="216" y="797" type="line"/>
      <point x="216" y="797"/>
      <point x="392" y="781"/>
      <point x="415" y="779" type="curve" smooth="yes"/>
      <point x="902" y="743"/>
      <point x="978" y="584"/>
      <point x="978" y="398" type="curve" smooth="yes"/>
      <point x="978" y="252"/>
      <point x="889" y="110"/>
      <point x="607" y="110" type="curve" smooth="yes"/>
      <point x="317" y="110"/>
      <point x="236" y="213"/>
      <point x="226" y="213" type="curve" smooth="yes"/>
      <point x="176" y="213" type="line"/>
      <point x="176" y="77" type="line"/>
      <point x="275" y="21"/>
      <point x="420" y="-23"/>
    </contour>
  </outline>
</glyph>
<glyph name="seven" format="1">
  <advance width="1137"/>
  <unicode hex="0037"/>
  <outline>
    <contour>
      <point x="310" y="0" type="line"/>
      <point x="484" y="0" type="line"/>
      <point x="1019" y="1353" type="line"/>
      <point x="1019" y="1481" type="line"/>
      <point x="166" y="1481" type="line"/>
      <point x="166" y="1152" type="line"/>
      <point x="344" y="1152" type="line"/>
      <point x="344" y="1348" type="line"/>
      <point x="844" y="1348" type="line"/>
    </contour>
  </outline>
</glyph>
<glyph name="eight" format="1">
  <advance width="1306"/>
  <unicode hex="0038"/>
  <outline>
    <contour>
      <point x="653" y="-23" type="curve" smooth="yes"/>
      <point x="985" y="-23"/>
      <point x="1183" y="161"/>
      <point x="1183" y="419" type="curve" smooth="yes"/>
      <point x="1183" y="583"/>
      <point x="1029" y="701"/>
      <point x="868" y="780" type="curve"/>
      <point x="1075" y="900"/>
      <point x="1144" y="1047"/>
      <point x="1146" y="1163" type="curve" smooth="yes"/>
      <point x="1146" y="1173" type="line" smooth="yes"/>
      <point x="1146" y="1358"/>
      <point x="959" y="1500"/>
      <point x="655" y="1500" type="curve" smooth="yes"/>
      <point x="367" y="1500"/>
      <point x="166" y="1355"/>
      <point x="166" y="1171" type="curve" smooth="yes"/>
      <point x="166" y="1043"/>
      <point x="248" y="926"/>
      <point x="502" y="795" type="curve"/>
      <point x="341" y="713"/>
      <point x="123" y="593"/>
      <point x="123" y="368" type="curve" smooth="yes"/>
      <point x="123" y="178"/>
      <point x="321" y="-23"/>
    </contour>
    <contour>
      <point x="662" y="115" type="curve" smooth="yes"/>
      <point x="408" y="115"/>
      <point x="293" y="228"/>
      <point x="293" y="391" type="curve" smooth="yes"/>
      <point x="293" y="577"/>
      <point x="528" y="690"/>
      <point x="603" y="729" type="curve"/>
      <point x="876" y="627"/>
      <point x="1003" y="509"/>
      <point x="1003" y="378" type="curve" smooth="yes"/>
      <point x="1003" y="270"/>
      <point x="935" y="115"/>
    </contour>
    <contour>
      <point x="767" y="834" type="curve"/>
      <point x="607" y="891"/>
      <point x="347" y="1043"/>
      <point x="347" y="1166" type="curve" smooth="yes"/>
      <point x="347" y="1357"/>
      <point x="580" y="1367"/>
      <point x="669" y="1367" type="curve" smooth="yes"/>
      <point x="842" y="1367"/>
      <point x="986" y="1300"/>
      <point x="986" y="1169" type="curve" smooth="yes"/>
      <point x="986" y="985"/>
      <point x="810" y="872"/>
    </contour>
  </outline>
</glyph>
<glyph name="nine" format="1">
  <advance width="1236"/>
  <unicode hex="0039"/>
  <outline>
    <contour>
      <point x="352" y="-23" type="curve" smooth="yes"/>
      <point x="842" y="-23"/>
      <point x="1115" y="474"/>
      <point x="1115" y="923" type="curve" smooth="yes"/>
      <point x="1115" y="1271"/>
      <point x="906" y="1481"/>
      <point x="607" y="1481" type="curve" smooth="yes"/>
      <point x="317" y="1481"/>
      <point x="113" y="1293"/>
      <point x="113" y="1005" type="curve" smooth="yes"/>
      <point x="113" y="725"/>
      <point x="341" y="570"/>
      <point x="574" y="570" type="curve" smooth="yes"/>
      <point x="661" y="570"/>
      <point x="863" y="603"/>
      <point x="939" y="753" type="curve"/>
      <point x="883" y="428"/>
      <point x="676" y="105"/>
      <point x="324" y="105" type="curve"/>
      <point x="324" y="105"/>
      <point x="347" y="-23"/>
    </contour>
    <contour>
      <point x="591" y="703" type="curve" smooth="yes"/>
      <point x="384" y="703"/>
      <point x="286" y="859"/>
      <point x="286" y="1003" type="curve" smooth="yes"/>
      <point x="286" y="1183"/>
      <point x="364" y="1348"/>
      <point x="624" y="1348" type="curve" smooth="yes"/>
      <point x="821" y="1348"/>
      <point x="928" y="1185"/>
      <point x="928" y="1036" type="curve" smooth="yes"/>
      <point x="928" y="858"/>
      <point x="835" y="703"/>
    </contour>
  </outline>
</glyph>
<glyph name="colon" format="1">
  <advance width="485"/>
  <unicode hex="003A"/>
  <outline>
    <contour>
      <point x="242" y="0" type="curve" smooth="yes"/>
      <point x="325" y="0"/>
      <point x="393" y="68"/>
      <point x="393" y="150" type="curve" smooth="yes"/>
      <point x="393" y="233"/>
      <point x="325" y="301"/>
      <point x="242" y="301" type="curve" smooth="yes"/>
      <point x="159" y="301"/>
      <point x="92" y="233"/>
      <point x="92" y="150" type="curve" smooth="yes"/>
      <point x="92" y="68"/>
      <point x="159" y="0"/>
    </contour>
    <contour>
      <point x="242" y="730" type="curve" smooth="yes"/>
      <point x="325" y="730"/>
      <point x="393" y="799"/>
      <point x="393" y="882" type="curve" smooth="yes"/>
      <point x="393" y="965"/>
      <point x="325" y="1032"/>
      <point x="242" y="1032" type="curve" smooth="yes"/>
      <point x="159" y="1032"/>
      <point x="92" y="965"/>
      <point x="92" y="882" type="curve" smooth="yes"/>
      <point x="92" y="799"/>
      <point x="159" y="730"/>
    </contour>
  </outline>
</glyph>
<glyph name="semicolon" format="1">
  <advance width="451"/>
  <unicode hex="003B"/>
  <outline>
    <contour>
      <point x="67" y="-235" type="line"/>
      <point x="173" y="-235" type="line"/>
      <point x="357" y="338" type="line"/>
      <point x="126" y="338" type="line"/>
    </contour>
    <contour>
      <point x="240" y="735" type="curve" smooth="yes"/>
      <point x="322" y="735"/>
      <point x="389" y="801"/>
      <point x="389" y="884" type="curve" smooth="yes"/>
      <point x="389" y="966"/>
      <point x="322" y="1032"/>
      <point x="240" y="1032" type="curve" smooth="yes"/>
      <point x="157" y="1032"/>
      <point x="90" y="966"/>
      <point x="90" y="884" type="curve" smooth="yes"/>
      <point x="90" y="801"/>
      <point x="157" y="735"/>
    </contour>
  </outline>
</glyph>
<glyph name="less" format="1">
  <advance width="1100"/>
  <unicode hex="003C"/>
  <outline>
    <contour>
      <point x="1098" y="-14" type="line"/>
      <point x="1098" y="149" type="line"/>
      <point x="176" y="569" type="line"/>
      <point x="1098" y="985" type="line"/>
      <point x="1098" y="1157" type="line"/>
      <point x="-2" y="638" type="line"/>
      <point x="-2" y="507" type="line"/>
    </contour>
  </outline>
</glyph>
<glyph name="greater" format="1">
  <advance width="1100"/>
  <unicode hex="003E"/>
  <outline>
    <contour>
      <point x="3" y="-14" type="line"/>
      <point x="1103" y="505" type="line"/>
      <point x="1103" y="637" type="line"/>
      <point x="3" y="1157" type="line"/>
      <point x="3" y="995" type="line"/>
      <point x="925" y="575" type="line"/>
      <point x="3" y="159" type="line"/>
    </contour>
  </outline>
</glyph>
<glyph name="question" format="1">
  <advance width="903"/>
  <unicode hex="003F"/>
  <outline>
    <contour>
      <point x="290" y="496" type="curve"/>
      <point x="370" y="496" type="line"/>
      <point x="560" y="685"/>
      <point x="830" y="903"/>
      <point x="830" y="1150" type="curve" smooth="yes"/>
      <point x="830" y="1337"/>
      <point x="741" y="1503"/>
      <point x="468" y="1503" type="curve" smooth="yes"/>
      <point x="289" y="1503"/>
      <point x="133" y="1420"/>
      <point x="73" y="1384" type="curve"/>
      <point x="73" y="1239" type="line"/>
      <point x="177" y="1316"/>
      <point x="284" y="1367"/>
      <point x="415" y="1367" type="curve" smooth="yes"/>
      <point x="609" y="1367"/>
      <point x="675" y="1247"/>
      <point x="675" y="1122" type="curve" smooth="yes"/>
      <point x="675" y="987"/>
      <point x="429" y="689"/>
    </contour>
    <contour>
      <point x="335" y="-2" type="curve" smooth="yes"/>
      <point x="415" y="-2"/>
      <point x="477" y="61"/>
      <point x="477" y="141" type="curve" smooth="yes"/>
      <point x="477" y="221"/>
      <point x="415" y="286"/>
      <point x="335" y="286" type="curve" smooth="yes"/>
      <point x="255" y="286"/>
      <point x="190" y="221"/>
      <point x="190" y="141" type="curve" smooth="yes"/>
      <point x="190" y="61"/>
      <point x="255" y="-2"/>
    </contour>
  </outline>
</glyph>
<glyph name="A" format="1">
  <advance width="1283"/>
  <unicode hex="0041"/>
  <outline>
    <contour>
      <point x="15" y="0" type="line"/>
      <point x="195" y="0" type="line"/>
      <point x="331" y="400" type="line"/>
      <point x="958" y="400" type="line"/>
      <point x="1091" y="0" type="line"/>
      <point x="1268" y="0" type="line"/>
      <point x="746" y="1481" type="line"/>
      <point x="517" y="1481" type="line"/>
    </contour>
    <contour>
      <point x="380" y="537" type="line"/>
      <point x="636" y="1353" type="line"/>
      <point x="907" y="537" type="line"/>
    </contour>
  </outline>
</glyph>
<glyph name="B" format="1">
  <advance width="1253"/>
  <unicode hex="0042"/>
  <outline>
    <contour>
      <point x="132" y="0" type="line"/>
      <point x="614" y="0" type="line" smooth="yes"/>
      <point x="953" y="0"/>
      <point x="1195" y="129"/>
      <point x="1195" y="451" type="curve" smooth="yes"/>
      <point x="1195" y="633"/>
      <point x="1057" y="788"/>
      <point x="857" y="813" type="curve"/>
      <point x="857" y="820" type="line"/>
      <point x="1011" y="860"/>
      <point x="1094" y="981"/>
      <point x="1094" y="1103" type="curve" smooth="yes"/>
      <point x="1094" y="1387"/>
      <point x="897" y="1481"/>
      <point x="553" y="1481" type="curve" smooth="yes"/>
      <point x="132" y="1481" type="line"/>
    </contour>
    <contour>
      <point x="310" y="133" type="line"/>
      <point x="310" y="731" type="line"/>
      <point x="664" y="731" type="line" smooth="yes"/>
      <point x="848" y="731"/>
      <point x="1017" y="616"/>
      <point x="1017" y="451" type="curve" smooth="yes"/>
      <point x="1017" y="328"/>
      <point x="989" y="133"/>
      <point x="664" y="133" type="curve" smooth="yes"/>
    </contour>
    <contour>
      <point x="310" y="856" type="line"/>
      <point x="310" y="1348" type="line"/>
      <point x="602" y="1348" type="line" smooth="yes"/>
      <point x="810" y="1348"/>
      <point x="903" y="1244"/>
      <point x="903" y="1109" type="curve" smooth="yes"/>
      <point x="903" y="967"/>
      <point x="826" y="856"/>
      <point x="605" y="856" type="curve" smooth="yes"/>
    </contour>
  </outline>
</glyph>
<glyph name="D" format="1">
  <advance width="1406"/>
  <unicode hex="0044"/>
  <outline>
    <contour>
      <point x="310" y="133" type="line"/>
      <point x="310" y="1345" type="line"/>
      <point x="581" y="1345" type="line" smooth="yes"/>
      <point x="949" y="1345"/>
      <point x="1134" y="1135"/>
      <point x="1134" y="740" type="curve" smooth="yes"/>
      <point x="1134" y="323"/>
      <point x="959" y="133"/>
      <point x="581" y="133" type="curve" smooth="yes"/>
    </contour>
    <contour>
      <point x="132" y="0" type="line"/>
      <point x="561" y="0" type="line" smooth="yes"/>
      <point x="1084" y="0"/>
      <point x="1311" y="231"/>
      <point x="1311" y="740" type="curve" smooth="yes"/>
      <point x="1311" y="1245"/>
      <point x="1037" y="1481"/>
      <point x="556" y="1481" type="curve" smooth="yes"/>
      <point x="132" y="1481" type="line"/>
    </contour>
  </outline>
</glyph>
<glyph name="E" format="1">
  <advance width="1048"/>
  <unicode hex="0045"/>
  <outline>
    <contour>
      <point x="132" y="0" type="line"/>
      <point x="972" y="0" type="line"/>
      <point x="972" y="133" type="line"/>
      <point x="310" y="133" type="line"/>
      <point x="310" y="717" type="line"/>
      <point x="886" y="717" type="line"/>
      <point x="886" y="849" type="line"/>
      <point x="310" y="849" type="line"/>
      <point x="310" y="1348" type="line"/>
      <point x="950" y="1348" type="line"/>
      <point x="950" y="1481" type="line"/>
      <point x="132" y="1481" type="line"/>
    </contour>
  </outline>
</glyph>
<glyph name="F" format="1">
  <advance width="986"/>
  <unicode hex="0046"/>
  <outline>
    <contour>
      <point x="132" y="0" type="line"/>
      <point x="311" y="0" type="line"/>
      <point x="311" y="719" type="line"/>
      <point x="899" y="719" type="line"/>
      <point x="899" y="854" type="line"/>
      <point x="311" y="854" type="line"/>
      <point x="311" y="1346" type="line"/>
      <point x="957" y="1346" type="line"/>
      <point x="957" y="1481" type="line"/>
      <point x="132" y="1481" type="line"/>
    </contour>
  </outline>
</glyph>
<glyph name="G" format="1">
  <advance width="1412.0"/>
  <unicode hex="0047"/>
  <outline>
    <contour>
      <point x="775.0" y="-23.0" type="curve" smooth="yes"/>
      <point x="1002.0" y="-23.0"/>
      <point x="1150" y="32"/>
      <point x="1288" y="118" type="curve"/>
      <point x="1288.0" y="802.0" type="line"/>
      <point x="731.0" y="802.0" type="line"/>
      <point x="731.0" y="669.0" type="line"/>
      <point x="1134.0" y="669.0" type="line"/>
      <point x="1134" y="182" type="line"/>
      <point x="1135" y="181"/>
      <point x="1016" y="114"/>
      <point x="796" y="114" type="curve" smooth="yes"/>
      <point x="431" y="114"/>
      <point x="272.0" y="294.0"/>
      <point x="272.0" y="746.0" type="curve" smooth="yes"/>
      <point x="272.0" y="1188.0"/>
      <point x="465.0" y="1368.0"/>
      <point x="784.0" y="1368.0" type="curve" smooth="yes"/>
      <point x="995.0" y="1368.0"/>
      <point x="1207.0" y="1267.0"/>
      <point x="1207.0" y="1264.0" type="curve"/>
      <point x="1246.0" y="1392.0" type="line"/>
      <point x="1157.0" y="1436.0"/>
      <point x="977.0" y="1503.0"/>
      <point x="780.0" y="1503.0" type="curve" smooth="yes"/>
      <point x="325.0" y="1503.0"/>
      <point x="95.0" y="1234.0"/>
      <point x="95.0" y="741.0" type="curve" smooth="yes"/>
      <point x="95.0" y="269.0"/>
      <point x="287.0" y="-23.0"/>
    </contour>
  </outline>
</glyph>
<glyph name="H" format="1">
  <advance width="1383"/>
  <unicode hex="0048"/>
  <outline>
    <contour>
      <point x="132" y="0" type="line"/>
      <point x="310" y="0" type="line"/>
      <point x="310" y="699" type="line"/>
      <point x="1074" y="699" type="line"/>
      <point x="1074" y="0" type="line"/>
      <point x="1251" y="0" type="line"/>
      <point x="1251" y="1481" type="line"/>
      <point x="1074" y="1481" type="line"/>
      <point x="1074" y="828" type="line"/>
      <point x="310" y="828" type="line"/>
      <point x="310" y="1481" type="line"/>
      <point x="132" y="1481" type="line"/>
    </contour>
  </outline>
</glyph>
<glyph name="K" format="1">
  <advance width="1246"/>
  <unicode hex="004B"/>
  <outline>
    <contour>
      <point x="132" y="0" type="line"/>
      <point x="310" y="0" type="line"/>
      <point x="310" y="496" type="line"/>
      <point x="573" y="776" type="line"/>
      <point x="640" y="666" type="line"/>
      <point x="731" y="513"/>
      <point x="1034" y="0"/>
      <point x="1034" y="0" type="curve"/>
      <point x="1238" y="0" type="line"/>
      <point x="696" y="894" type="line"/>
      <point x="1211" y="1481" type="line"/>
      <point x="984" y="1481" type="line"/>
      <point x="987" y="1485"/>
      <point x="988" y="1487"/>
      <point x="988" y="1488" type="curve" smooth="yes"/>
      <point x="988" y="1498"/>
      <point x="618" y="1057"/>
      <point x="598" y="1039" type="curve"/>
      <point x="311" y="714" type="line"/>
      <point x="310" y="714" type="line"/>
      <point x="310" y="1481" type="line"/>
      <point x="132" y="1481" type="line"/>
    </contour>
  </outline>
</glyph>
<glyph name="L" format="1">
  <advance width="1016"/>
  <unicode hex="004C"/>
  <outline>
    <contour>
      <point x="132" y="0" type="line"/>
      <point x="979" y="0" type="line"/>
      <point x="979" y="133" type="line"/>
      <point x="309" y="133" type="line"/>
      <point x="309" y="1481" type="line"/>
      <point x="132" y="1481" type="line"/>
    </contour>
  </outline>
</glyph>
<glyph name="M" format="1">
  <advance width="1565"/>
  <unicode hex="004D"/>
  <outline>
    <contour>
      <point x="132" y="0" type="line"/>
      <point x="310" y="0" type="line"/>
      <point x="310" y="963" type="line"/>
      <point x="303" y="1180" type="line"/>
      <point x="718" y="453" type="line"/>
      <point x="859" y="453" type="line"/>
      <point x="1263" y="1180" type="line"/>
      <point x="1255" y="963" type="line"/>
      <point x="1255" y="0" type="line"/>
      <point x="1433" y="0" type="line"/>
      <point x="1433" y="1481" type="line"/>
      <point x="1263" y="1481" type="line"/>
      <point x="787" y="633" type="line"/>
      <point x="309" y="1481" type="line"/>
      <point x="132" y="1481" type="line"/>
    </contour>
  </outline>
</glyph>
<glyph name="N" format="1">
  <advance width="1491"/>
  <unicode hex="004E"/>
  <outline>
    <contour>
      <point x="132" y="0" type="line"/>
      <point x="310" y="0" type="line"/>
      <point x="310" y="986" type="line"/>
      <point x="304" y="1185" type="line"/>
      <point x="1203" y="0" type="line"/>
      <point x="1359" y="0" type="line"/>
      <point x="1359" y="1481" type="line"/>
      <point x="1182" y="1481" type="line"/>
      <point x="1182" y="533" type="line"/>
      <point x="1188" y="275" type="line"/>
      <point x="271" y="1481" type="line"/>
      <point x="132" y="1481" type="line"/>
    </contour>
  </outline>
</glyph>
<glyph name="P" format="1">
  <advance width="1150"/>
  <unicode hex="0050"/>
  <outline>
    <contour>
      <point x="132" y="0" type="line"/>
      <point x="309" y="0" type="line"/>
      <point x="309" y="625" type="line"/>
      <point x="446" y="625" type="line" smooth="yes"/>
      <point x="821" y="625"/>
      <point x="1071" y="758"/>
      <point x="1071" y="1057" type="curve" smooth="yes"/>
      <point x="1071" y="1359"/>
      <point x="885" y="1481"/>
      <point x="527" y="1481" type="curve" smooth="yes"/>
      <point x="132" y="1481" type="line"/>
    </contour>
    <contour>
      <point x="309" y="758" type="line"/>
      <point x="309" y="1348" type="line"/>
      <point x="525" y="1348" type="line" smooth="yes"/>
      <point x="814" y="1348"/>
      <point x="893" y="1248"/>
      <point x="893" y="1059" type="curve" smooth="yes"/>
      <point x="893" y="847"/>
      <point x="734" y="758"/>
      <point x="429" y="758" type="curve" smooth="yes"/>
    </contour>
  </outline>
</glyph>
<glyph name="R" format="1">
  <advance width="1242"/>
  <unicode hex="0052"/>
  <outline>
    <contour>
      <point x="132" y="0" type="line"/>
      <point x="310" y="0" type="line"/>
      <point x="310" y="688" type="line"/>
      <point x="660" y="688" type="line"/>
      <point x="1035" y="0" type="line"/>
      <point x="1205" y="0" type="line"/>
      <point x="1205" y="46" type="line"/>
      <point x="837" y="711" type="line"/>
      <point x="1034" y="776"/>
      <point x="1129" y="901"/>
      <point x="1129" y="1102" type="curve" smooth="yes"/>
      <point x="1129" y="1421"/>
      <point x="875" y="1481"/>
      <point x="631" y="1481" type="curve" smooth="yes"/>
      <point x="132" y="1481" type="line"/>
    </contour>
    <contour>
      <point x="310" y="821" type="line"/>
      <point x="310" y="1348" type="line"/>
      <point x="647" y="1348" type="line" smooth="yes"/>
      <point x="864" y="1348"/>
      <point x="957" y="1249"/>
      <point x="957" y="1101" type="curve" smooth="yes"/>
      <point x="957" y="938"/>
      <point x="867" y="821"/>
      <point x="635" y="821" type="curve" smooth="yes"/>
    </contour>
  </outline>
</glyph>
<glyph name="S" format="1">
  <advance width="1205"/>
  <unicode hex="0053"/>
  <outline>
    <contour>
      <point x="590" y="-23" type="curve" smooth="yes"/>
      <point x="892" y="-23"/>
      <point x="1131" y="113"/>
      <point x="1131" y="385" type="curve" smooth="yes"/>
      <point x="1131" y="665"/>
      <point x="964" y="751"/>
      <point x="603" y="832" type="curve" smooth="yes"/>
      <point x="310" y="898"/>
      <point x="281" y="968"/>
      <point x="281" y="1096" type="curve" smooth="yes"/>
      <point x="281" y="1227"/>
      <point x="373" y="1365"/>
      <point x="643" y="1365" type="curve" smooth="yes"/>
      <point x="768" y="1365"/>
      <point x="926" y="1340"/>
      <point x="1048" y="1264" type="curve"/>
      <point x="1064" y="1264" type="line"/>
      <point x="1079" y="1394" type="line"/>
      <point x="957" y="1466"/>
      <point x="795" y="1503"/>
      <point x="632" y="1503" type="curve" smooth="yes"/>
      <point x="339" y="1503"/>
      <point x="112" y="1350"/>
      <point x="112" y="1101" type="curve" smooth="yes"/>
      <point x="112" y="856"/>
      <point x="235" y="761"/>
      <point x="544" y="694" type="curve" smooth="yes"/>
      <point x="908" y="616"/>
      <point x="961" y="546"/>
      <point x="961" y="374" type="curve"/>
      <point x="961" y="248"/>
      <point x="876" y="115"/>
      <point x="586" y="115" type="curve" smooth="yes"/>
      <point x="451" y="115"/>
      <point x="251" y="159"/>
      <point x="134" y="261" type="curve"/>
      <point x="106" y="261" type="line"/>
      <point x="82" y="126" type="line"/>
      <point x="211" y="37"/>
      <point x="385" y="-23"/>
    </contour>
  </outline>
</glyph>
<glyph name="U" format="1">
  <advance width="1426"/>
  <unicode hex="0055"/>
  <outline>
    <contour>
      <point x="711" y="-23" type="curve" smooth="yes"/>
      <point x="1071" y="-23"/>
      <point x="1311" y="144"/>
      <point x="1311" y="478" type="curve" smooth="yes"/>
      <point x="1311" y="1481" type="line"/>
      <point x="1134" y="1481" type="line"/>
      <point x="1134" y="477" type="line" smooth="yes"/>
      <point x="1134" y="221"/>
      <point x="977" y="110"/>
      <point x="711" y="110" type="curve" smooth="yes"/>
      <point x="445" y="110"/>
      <point x="292" y="221"/>
      <point x="292" y="477" type="curve" smooth="yes"/>
      <point x="292" y="1481" type="line"/>
      <point x="115" y="1481" type="line"/>
      <point x="115" y="478" type="line" smooth="yes"/>
      <point x="115" y="144"/>
      <point x="365" y="-23"/>
    </contour>
  </outline>
</glyph>
<glyph name="V" format="1">
  <advance width="1309.0"/>
  <unicode hex="0056"/>
  <outline>
    <contour>
      <point x="529.0" y="0.0" type="line"/>
      <point x="789.0" y="0.0" type="line"/>
      <point x="1326.0" y="1481.0" type="line"/>
      <point x="1139.0" y="1481.0" type="line"/>
      <point x="1020.0" y="1145.0"/>
      <point x="906.0" y="804.0"/>
      <point x="787.0" y="469.0" type="curve"/>
      <point x="745.0" y="351.0"/>
      <point x="703.0" y="233.0"/>
      <point x="659.0" y="117.0" type="curve"/>
      <point x="658.0" y="117.0" type="line"/>
      <point x="615.0" y="234.0"/>
      <point x="573.0" y="351.0"/>
      <point x="530.0" y="468.0" type="curve"/>
      <point x="409.0" y="806.0"/>
      <point x="289.0" y="1144.0"/>
      <point x="167.0" y="1481.0" type="curve"/>
      <point x="-17.0" y="1481.0" type="line"/>
    </contour>
  </outline>
</glyph>
<glyph name="W" format="1">
  <advance width="1961.0"/>
  <unicode hex="0057"/>
  <outline>
    <contour>
      <point x="411.0" y="0.0" type="line"/>
      <point x="580.0" y="0.0" type="line"/>
      <point x="992.0" y="1364.0" type="line"/>
      <point x="1368.0" y="0.0" type="line"/>
      <point x="1539.0" y="0.0" type="line"/>
      <point x="1949.0" y="1481.0" type="line"/>
      <point x="1781.0" y="1481.0" type="line"/>
      <point x="1695.0" y="1162.0"/>
      <point x="1609" y="833"/>
      <point x="1523" y="514" type="curve"/>
      <point x="1503" y="439"/>
      <point x="1483" y="354"/>
      <point x="1463" y="279" type="curve"/>
      <point x="1442" y="354"/>
      <point x="1420" y="439"/>
      <point x="1399" y="514" type="curve"/>
      <point x="1306" y="834"/>
      <point x="1211.0" y="1163.0"/>
      <point x="1117.0" y="1481.0" type="curve"/>
      <point x="860.0" y="1481.0" type="line"/>
      <point x="765.0" y="1164.0"/>
      <point x="669" y="836"/>
      <point x="574" y="518" type="curve"/>
      <point x="551" y="441"/>
      <point x="528" y="355"/>
      <point x="505" y="278" type="curve"/>
      <point x="502" y="278" type="line"/>
      <point x="481" y="355"/>
      <point x="460" y="441"/>
      <point x="440" y="518" type="curve"/>
      <point x="355" y="835"/>
      <point x="270.0" y="1164.0"/>
      <point x="185.0" y="1481.0" type="curve"/>
      <point x="12.0" y="1481.0" type="line"/>
    </contour>
  </outline>
</glyph>
<glyph name="X" format="1">
  <advance width="1381.0"/>
  <unicode hex="0058"/>
  <outline>
    <contour>
      <point x="5.0" y="0.0" type="line"/>
      <point x="209.0" y="0.0" type="line"/>
      <point x="321.0" y="145.0"/>
      <point x="432.0" y="292.0"/>
      <point x="544.0" y="436.0" type="curve"/>
      <point x="592.0" y="498.0"/>
      <point x="640.0" y="560.0"/>
      <point x="689.0" y="621.0" type="curve"/>
      <point x="734.0" y="559.0"/>
      <point x="779.0" y="498.0"/>
      <point x="825.0" y="436.0" type="curve"/>
      <point x="933.0" y="291.0"/>
      <point x="1042.0" y="146.0"/>
      <point x="1150.0" y="0.0" type="curve"/>
      <point x="1340.0" y="0.0" type="line"/>
      <point x="785.0" y="721.0" type="line"/>
      <point x="1376.0" y="1481.0" type="line"/>
      <point x="1169.0" y="1481.0" type="line"/>
      <point x="1048.0" y="1323.0"/>
      <point x="931.0" y="1161.0"/>
      <point x="811.0" y="1003.0" type="curve"/>
      <point x="771.0" y="950.0"/>
      <point x="730.0" y="898.0"/>
      <point x="689.0" y="847.0" type="curve"/>
      <point x="648.0" y="898.0"/>
      <point x="607.0" y="950.0"/>
      <point x="567.0" y="1003.0" type="curve"/>
      <point x="447.0" y="1161.0"/>
      <point x="331.0" y="1323.0"/>
      <point x="211.0" y="1481.0" type="curve"/>
      <point x="37.0" y="1481.0" type="line"/>
      <point x="590.0" y="741.0" type="line"/>
    </contour>
  </outline>
</glyph>
<glyph name="Y" format="1">
  <advance width="1302"/>
  <unicode hex="0059"/>
  <outline>
    <contour>
      <point x="554" y="0" type="line"/>
      <point x="731" y="0" type="line"/>
      <point x="731" y="688" type="line"/>
      <point x="1343" y="1481" type="line"/>
      <point x="1146" y="1481" type="line"/>
      <point x="641" y="825" type="line"/>
      <point x="150" y="1481" type="line"/>
      <point x="-41" y="1481" type="line"/>
      <point x="554" y="685" type="line"/>
    </contour>
  </outline>
</glyph>
<glyph name="Z" format="1">
  <advance width="1098"/>
  <unicode hex="005A"/>
  <outline>
    <contour>
      <point x="90" y="0" type="line"/>
      <point x="1042" y="0" type="line"/>
      <point x="1042" y="133" type="line"/>
      <point x="276" y="133" type="line"/>
      <point x="1019" y="1349" type="line"/>
      <point x="1019" y="1481" type="line"/>
      <point x="95" y="1481" type="line"/>
      <point x="95" y="1348" type="line"/>
      <point x="839" y="1348" type="line"/>
      <point x="90" y="141" type="line"/>
    </contour>
  </outline>
</glyph>
<glyph name="backslash" format="1">
  <advance width="854"/>
  <unicode hex="005C"/>
  <outline>
    <contour>
      <point x="698" y="0" type="line"/>
      <point x="860" y="0" type="line"/>
      <point x="154" y="1481" type="line"/>
      <point x="-10" y="1481" type="line"/>
    </contour>
  </outline>
</glyph>
<glyph name="underscore" format="1">
  <advance width="1415"/>
  <unicode hex="005F"/>
  <outline>
    <contour>
      <point x="99" y="-261" type="line"/>
      <point x="1316" y="-261" type="line"/>
      <point x="1316" y="-129" type="line"/>
      <point x="99" y="-129" type="line"/>
    </contour>
  </outline>
</glyph>
<glyph name="a" format="1">
  <advance width="1043"/>
  <unicode hex="0061"/>
  <outline>
    <contour>
      <point x="398" y="-21" type="curve" smooth="yes"/>
      <point x="587" y="-21"/>
      <point x="720" y="84"/>
      <point x="760" y="216" type="curve"/>
      <point x="760" y="0" type="line"/>
      <point x="937" y="0" type="line"/>
      <point x="937" y="616" type="line" smooth="yes"/>
      <point x="937" y="863"/>
      <point x="868" y="1058"/>
      <point x="521" y="1058" type="curve" smooth="yes"/>
      <point x="373" y="1058"/>
      <point x="201" y="1027"/>
      <point x="131" y="982" type="curve"/>
      <point x="170" y="844" type="line"/>
      <point x="259" y="887"/>
      <point x="410" y="914"/>
      <point x="525" y="914" type="curve" smooth="yes"/>
      <point x="699" y="914"/>
      <point x="760" y="852"/>
      <point x="760" y="635" type="curve"/>
      <point x="325" y="635"/>
      <point x="70" y="607"/>
      <point x="70" y="289" type="curve"/>
      <point x="72" y="113"/>
      <point x="205" y="-21"/>
    </contour>
    <contour>
      <point x="413" y="113" type="curve" smooth="yes"/>
      <point x="328" y="113"/>
      <point x="233" y="161"/>
      <point x="233" y="286" type="curve" smooth="yes"/>
      <point x="233" y="441"/>
      <point x="308" y="513"/>
      <point x="760" y="513" type="curve"/>
      <point x="760" y="283"/>
      <point x="627" y="113"/>
    </contour>
  </outline>
</glyph>
<glyph name="b" format="1">
  <advance width="1142"/>
  <unicode hex="0062"/>
  <outline>
    <contour>
      <point x="582" y="-30" type="curve" smooth="yes"/>
      <point x="858" y="-30"/>
      <point x="1052" y="171"/>
      <point x="1052" y="531" type="curve" smooth="yes"/>
      <point x="1052" y="889"/>
      <point x="857" y="1052"/>
      <point x="621" y="1052" type="curve" smooth="yes"/>
      <point x="514" y="1052"/>
      <point x="349" y="990"/>
      <point x="293" y="885" type="curve"/>
      <point x="293" y="1429" type="line"/>
      <point x="115" y="1429" type="line"/>
      <point x="115" y="0" type="line"/>
      <point x="293" y="0" type="line"/>
      <point x="293" y="82" type="line"/>
      <point x="329" y="21"/>
      <point x="463" y="-30"/>
    </contour>
    <contour>
      <point x="569" y="112" type="curve" smooth="yes"/>
      <point x="468" y="112"/>
      <point x="369" y="149"/>
      <point x="293" y="197" type="curve"/>
      <point x="293" y="760" type="line"/>
      <point x="314" y="814"/>
      <point x="450" y="906"/>
      <point x="585" y="906" type="curve" smooth="yes"/>
      <point x="758" y="906"/>
      <point x="875" y="776"/>
      <point x="875" y="516" type="curve" smooth="yes"/>
      <point x="875" y="283"/>
      <point x="776" y="112"/>
    </contour>
  </outline>
</glyph>
<glyph name="c" format="1">
  <advance width="1012"/>
  <unicode hex="0063"/>
  <outline>
    <contour>
      <point x="620" y="-21" type="curve" smooth="yes"/>
      <point x="761" y="-21"/>
      <point x="870" y="18"/>
      <point x="947" y="67" type="curve"/>
      <point x="911" y="217" type="line"/>
      <point x="872" y="190"/>
      <point x="739" y="123"/>
      <point x="617" y="123" type="curve" smooth="yes"/>
      <point x="385" y="123"/>
      <point x="267" y="272"/>
      <point x="267" y="511" type="curve" smooth="yes"/>
      <point x="267" y="777"/>
      <point x="400" y="911"/>
      <point x="610" y="911" type="curve" smooth="yes"/>
      <point x="722" y="911"/>
      <point x="843" y="867"/>
      <point x="919" y="808" type="curve"/>
      <point x="953" y="963" type="line"/>
      <point x="822" y="1038"/>
      <point x="724" y="1055"/>
      <point x="602" y="1055" type="curve" smooth="yes"/>
      <point x="327" y="1055"/>
      <point x="90" y="900"/>
      <point x="90" y="512" type="curve" smooth="yes"/>
      <point x="90" y="144"/>
      <point x="314" y="-21"/>
    </contour>
  </outline>
</glyph>
<glyph name="d" format="1">
  <advance width="1141"/>
  <unicode hex="0064"/>
  <outline>
    <contour>
      <point x="559" y="-30" type="curve"/>
      <point x="681" y="-29"/>
      <point x="806" y="28"/>
      <point x="849" y="119" type="curve"/>
      <point x="849" y="0" type="line"/>
      <point x="1026" y="0" type="line"/>
      <point x="1026" y="1429" type="line"/>
      <point x="849" y="1429" type="line"/>
      <point x="849" y="901" type="line"/>
      <point x="785" y="1018"/>
      <point x="635" y="1052"/>
      <point x="528" y="1052" type="curve" smooth="yes"/>
      <point x="292" y="1052"/>
      <point x="90" y="863"/>
      <point x="90" y="505" type="curve" smooth="yes"/>
      <point x="90" y="145"/>
      <point x="301" y="-30"/>
    </contour>
    <contour>
      <point x="568" y="111" type="curve" smooth="yes"/>
      <point x="358" y="111"/>
      <point x="267" y="278"/>
      <point x="267" y="516" type="curve" smooth="yes"/>
      <point x="267" y="776"/>
      <point x="395" y="911"/>
      <point x="568" y="911" type="curve" smooth="yes"/>
      <point x="703" y="911"/>
      <point x="828" y="840"/>
      <point x="849" y="786" type="curve"/>
      <point x="849" y="244" type="line"/>
      <point x="830" y="192"/>
      <point x="707" y="111"/>
    </contour>
  </outline>
</glyph>
<glyph name="e" format="1">
  <advance width="1106"/>
  <unicode hex="0065"/>
  <outline>
    <contour>
      <point x="621" y="-21" type="curve" smooth="yes"/>
      <point x="857" y="-21"/>
      <point x="976" y="71"/>
      <point x="1006" y="102" type="curve"/>
      <point x="962" y="227" type="line"/>
      <point x="944" y="227" type="line"/>
      <point x="879" y="163"/>
      <point x="753" y="126"/>
      <point x="634" y="126" type="curve" smooth="yes"/>
      <point x="416" y="126"/>
      <point x="283" y="258"/>
      <point x="276" y="469" type="curve"/>
      <point x="1025" y="469" type="line"/>
      <point x="1025" y="501" type="line" smooth="yes"/>
      <point x="1025" y="794"/>
      <point x="898" y="1055"/>
      <point x="587" y="1055" type="curve" smooth="yes"/>
      <point x="312" y="1055"/>
      <point x="90" y="854"/>
      <point x="90" y="510" type="curve" smooth="yes"/>
      <point x="90" y="165"/>
      <point x="347" y="-21"/>
    </contour>
    <contour>
      <point x="279" y="595" type="line"/>
      <point x="300" y="776"/>
      <point x="413" y="914"/>
      <point x="583" y="914" type="curve"/>
      <point x="797" y="914"/>
      <point x="850" y="718"/>
      <point x="855" y="595" type="curve"/>
    </contour>
  </outline>
</glyph>
<glyph name="g" format="1">
  <advance width="1132"/>
  <unicode hex="0067"/>
  <outline>
    <contour>
      <point x="575" y="-379" type="curve" smooth="yes"/>
      <point x="861" y="-379"/>
      <point x="1026" y="-248"/>
      <point x="1026" y="128" type="curve" smooth="yes"/>
      <point x="1026" y="1032" type="line"/>
      <point x="849" y="1032" type="line"/>
      <point x="849" y="882" type="line"/>
      <point x="785" y="985"/>
      <point x="661" y="1053"/>
      <point x="538" y="1053" type="curve" smooth="yes"/>
      <point x="265" y="1053"/>
      <point x="90" y="857"/>
      <point x="90" y="510" type="curve" smooth="yes"/>
      <point x="90" y="158"/>
      <point x="289" y="-30"/>
      <point x="541" y="-30" type="curve" smooth="yes"/>
      <point x="664" y="-30"/>
      <point x="773" y="12"/>
      <point x="849" y="107" type="curve"/>
      <point x="849" y="102" type="line" smooth="yes"/>
      <point x="849" y="-85"/>
      <point x="798" y="-237"/>
      <point x="547" y="-237" type="curve" smooth="yes"/>
      <point x="394" y="-237"/>
      <point x="295" y="-182"/>
      <point x="255" y="-155" type="curve"/>
      <point x="219" y="-293" type="line"/>
      <point x="312" y="-341"/>
      <point x="438" y="-379"/>
    </contour>
    <contour>
      <point x="558" y="112" type="curve" smooth="yes"/>
      <point x="374" y="112"/>
      <point x="267" y="258"/>
      <point x="267" y="511" type="curve" smooth="yes"/>
      <point x="267" y="725"/>
      <point x="326" y="912"/>
      <point x="558" y="912" type="curve" smooth="yes"/>
      <point x="640" y="912"/>
      <point x="776" y="881"/>
      <point x="849" y="784" type="curve"/>
      <point x="849" y="232" type="line"/>
      <point x="768" y="130"/>
      <point x="610" y="112"/>
    </contour>
  </outline>
</glyph>
<glyph name="i" format="1">
  <advance width="497"/>
  <unicode hex="0069"/>
  <outline>
    <contour>
      <point x="154" y="0" type="line"/>
      <point x="332" y="0" type="line"/>
      <point x="332" y="1032" type="line"/>
      <point x="154" y="1032" type="line"/>
    </contour>
    <contour>
      <point x="250" y="1189" type="curve" smooth="yes"/>
      <point x="333" y="1189"/>
      <point x="375" y="1249"/>
      <point x="375" y="1308" type="curve" smooth="yes"/>
      <point x="375" y="1368"/>
      <point x="332" y="1428"/>
      <point x="250" y="1428" type="curve" smooth="yes"/>
      <point x="165" y="1428"/>
      <point x="123" y="1369"/>
      <point x="123" y="1308" type="curve" smooth="yes"/>
      <point x="123" y="1249"/>
      <point x="167" y="1189"/>
    </contour>
  </outline>
</glyph>
<glyph name="j" format="1">
  <advance width="520"/>
  <unicode hex="006A"/>
  <outline>
    <contour>
      <point x="103" y="-373" type="curve" smooth="yes"/>
      <point x="333" y="-373"/>
      <point x="368" y="-207"/>
      <point x="368" y="11" type="curve" smooth="yes"/>
      <point x="368" y="1032" type="line"/>
      <point x="191" y="1032" type="line"/>
      <point x="191" y="-11" type="line" smooth="yes"/>
      <point x="191" y="-214"/>
      <point x="127" y="-229"/>
      <point x="25" y="-229" type="curve" smooth="yes"/>
      <point x="-6" y="-229"/>
      <point x="-18" y="-229"/>
      <point x="-54" y="-226" type="curve"/>
      <point x="-54" y="-366" type="line"/>
      <point x="-23" y="-369"/>
      <point x="0" y="-373"/>
    </contour>
    <contour>
      <point x="282" y="1189" type="curve" smooth="yes"/>
      <point x="364" y="1189"/>
      <point x="408" y="1250"/>
      <point x="408" y="1309" type="curve" smooth="yes"/>
      <point x="408" y="1369"/>
      <point x="364" y="1429"/>
      <point x="282" y="1429" type="curve" smooth="yes"/>
      <point x="197" y="1429"/>
      <point x="155" y="1370"/>
      <point x="155" y="1308" type="curve" smooth="yes"/>
      <point x="155" y="1251"/>
      <point x="199" y="1189"/>
    </contour>
  </outline>
</glyph>
<glyph name="l" format="1">
  <advance width="565"/>
  <unicode hex="006C"/>
  <outline>
    <contour>
      <point x="451" y="-9" type="curve" smooth="yes"/>
      <point x="533" y="-9" type="line"/>
      <point x="533" y="133" type="line"/>
      <point x="321" y="133"/>
      <point x="312" y="161"/>
      <point x="312" y="311" type="curve" smooth="yes"/>
      <point x="312" y="1429" type="line"/>
      <point x="135" y="1429" type="line"/>
      <point x="135" y="313" type="line" smooth="yes"/>
      <point x="135" y="129"/>
      <point x="141" y="-9"/>
    </contour>
  </outline>
</glyph>
<glyph name="m" format="1">
  <advance width="1647"/>
  <unicode hex="006D"/>
  <outline>
    <contour>
      <point x="115" y="0" type="line"/>
      <point x="293" y="0" type="line"/>
      <point x="293" y="757" type="line" smooth="yes"/>
      <point x="293" y="821"/>
      <point x="428" y="911"/>
      <point x="556" y="911" type="curve" smooth="yes"/>
      <point x="661" y="911"/>
      <point x="746" y="847"/>
      <point x="746" y="686" type="curve" smooth="yes"/>
      <point x="746" y="0" type="line"/>
      <point x="924" y="0" type="line"/>
      <point x="924" y="762" type="line" smooth="yes"/>
      <point x="924" y="800"/>
      <point x="1033" y="911"/>
      <point x="1172" y="911" type="curve" smooth="yes"/>
      <point x="1295" y="911"/>
      <point x="1364" y="845"/>
      <point x="1364" y="661" type="curve" smooth="yes"/>
      <point x="1364" y="0" type="line"/>
      <point x="1541" y="0" type="line"/>
      <point x="1541" y="680" type="line" smooth="yes"/>
      <point x="1541" y="941"/>
      <point x="1411" y="1058"/>
      <point x="1234" y="1058" type="curve" smooth="yes"/>
      <point x="1114" y="1058"/>
      <point x="989" y="1002"/>
      <point x="900" y="882" type="curve"/>
      <point x="854" y="1017"/>
      <point x="745" y="1058"/>
      <point x="630" y="1058" type="curve" smooth="yes"/>
      <point x="505" y="1058"/>
      <point x="369" y="1002"/>
      <point x="293" y="887" type="curve"/>
      <point x="293" y="1032" type="line"/>
      <point x="115" y="1032" type="line"/>
    </contour>
  </outline>
</glyph>
<glyph name="n" format="1">
  <advance width="1131"/>
  <unicode hex="006E"/>
  <outline>
    <contour>
      <point x="115" y="0" type="line"/>
      <point x="293" y="0" type="line"/>
      <point x="293" y="746" type="line" smooth="yes"/>
      <point x="293" y="789"/>
      <point x="439" y="911"/>
      <point x="623" y="911" type="curve" smooth="yes"/>
      <point x="726" y="911"/>
      <point x="848" y="872"/>
      <point x="848" y="707" type="curve" smooth="yes"/>
      <point x="848" y="0" type="line"/>
      <point x="1025" y="0" type="line"/>
      <point x="1025" y="691" type="line" smooth="yes"/>
      <point x="1025" y="935"/>
      <point x="876" y="1058"/>
      <point x="680" y="1058" type="curve" smooth="yes"/>
      <point x="537" y="1058"/>
      <point x="378" y="993"/>
      <point x="293" y="862" type="curve"/>
      <point x="293" y="1032" type="line"/>
      <point x="115" y="1032" type="line"/>
    </contour>
  </outline>
</glyph>
<glyph name="o" format="1">
  <advance width="1181"/>
  <unicode hex="006F"/>
  <outline>
    <contour>
      <point x="590" y="123" type="curve" smooth="yes"/>
      <point x="397" y="123"/>
      <point x="267" y="268"/>
      <point x="267" y="519" type="curve" smooth="yes"/>
      <point x="267" y="772"/>
      <point x="406" y="911"/>
      <point x="588" y="911" type="curve" smooth="yes"/>
      <point x="789" y="911"/>
      <point x="912" y="777"/>
      <point x="912" y="517" type="curve" smooth="yes"/>
      <point x="912" y="279"/>
      <point x="805" y="123"/>
    </contour>
    <contour>
      <point x="588" y="-21" type="curve" smooth="yes"/>
      <point x="844" y="-21"/>
      <point x="1091" y="132"/>
      <point x="1091" y="520" type="curve" smooth="yes"/>
      <point x="1091" y="911"/>
      <point x="844" y="1058"/>
      <point x="588" y="1058" type="curve" smooth="yes"/>
      <point x="348" y="1058"/>
      <point x="90" y="912"/>
      <point x="90" y="521" type="curve" smooth="yes"/>
      <point x="90" y="130"/>
      <point x="336" y="-21"/>
    </contour>
  </outline>
</glyph>
<glyph name="p" format="1">
  <advance width="1142"/>
  <unicode hex="0070"/>
  <outline>
    <contour>
      <point x="115" y="-388" type="line"/>
      <point x="292" y="-388" type="line"/>
      <point x="292" y="107" type="line"/>
      <point x="368" y="12"/>
      <point x="489" y="-21"/>
      <point x="612" y="-21" type="curve" smooth="yes"/>
      <point x="864" y="-21"/>
      <point x="1052" y="158"/>
      <point x="1052" y="510" type="curve" smooth="yes"/>
      <point x="1052" y="857"/>
      <point x="876" y="1053"/>
      <point x="603" y="1053" type="curve" smooth="yes"/>
      <point x="480" y="1053"/>
      <point x="356" y="985"/>
      <point x="292" y="882" type="curve"/>
      <point x="292" y="1032" type="line"/>
      <point x="115" y="1032" type="line"/>
    </contour>
    <contour>
      <point x="583" y="112" type="curve" smooth="yes"/>
      <point x="531" y="112"/>
      <point x="373" y="130"/>
      <point x="292" y="232" type="curve"/>
      <point x="292" y="784" type="line"/>
      <point x="365" y="881"/>
      <point x="511" y="912"/>
      <point x="593" y="912" type="curve" smooth="yes"/>
      <point x="825" y="912"/>
      <point x="874" y="725"/>
      <point x="874" y="511" type="curve" smooth="yes"/>
      <point x="874" y="258"/>
      <point x="767" y="112"/>
    </contour>
  </outline>
</glyph>
<glyph name="q" format="1">
  <advance width="1141"/>
  <unicode hex="0071"/>
  <outline>
    <contour>
      <point x="849" y="-388" type="line"/>
      <point x="1026" y="-388" type="line"/>
      <point x="1026" y="1032" type="line"/>
      <point x="849" y="1032" type="line"/>
      <point x="849" y="905" type="line"/>
      <point x="785" y="1008"/>
      <point x="661" y="1053"/>
      <point x="538" y="1053" type="curve" smooth="yes"/>
      <point x="269" y="1053"/>
      <point x="90" y="863"/>
      <point x="90" y="526" type="curve" smooth="yes"/>
      <point x="90" y="168"/>
      <point x="291" y="-21"/>
      <point x="547" y="-21" type="curve" smooth="yes"/>
      <point x="670" y="-21"/>
      <point x="778" y="20"/>
      <point x="849" y="107" type="curve"/>
    </contour>
    <contour>
      <point x="566" y="109" type="curve" smooth="yes"/>
      <point x="377" y="109"/>
      <point x="267" y="253"/>
      <point x="267" y="511" type="curve" smooth="yes"/>
      <point x="267" y="725"/>
      <point x="316" y="912"/>
      <point x="548" y="912" type="curve" smooth="yes"/>
      <point x="630" y="912"/>
      <point x="776" y="881"/>
      <point x="849" y="784" type="curve"/>
      <point x="849" y="232" type="line"/>
      <point x="773" y="136"/>
      <point x="627" y="109"/>
    </contour>
  </outline>
</glyph>
<glyph name="r" format="1">
  <advance width="678"/>
  <unicode hex="0072"/>
  <outline>
    <contour>
      <point x="115" y="0" type="line"/>
      <point x="293" y="0" type="line"/>
      <point x="293" y="787" type="line"/>
      <point x="369" y="862"/>
      <point x="465" y="884"/>
      <point x="544" y="884" type="curve" smooth="yes"/>
      <point x="598" y="884"/>
      <point x="646" y="873"/>
      <point x="672" y="862" type="curve"/>
      <point x="693" y="1016" type="line"/>
      <point x="668" y="1029"/>
      <point x="626" y="1036"/>
      <point x="590" y="1036" type="curve" smooth="yes"/>
      <point x="463" y="1036"/>
      <point x="351" y="969"/>
      <point x="294" y="904" type="curve"/>
      <point x="293" y="904" type="line"/>
      <point x="293" y="1032" type="line"/>
      <point x="115" y="1032" type="line"/>
    </contour>
  </outline>
</glyph>
<glyph name="s" format="1">
  <advance width="962"/>
  <unicode hex="0073"/>
  <outline>
    <contour>
    </contour>
    <contour>
      <point x="488.0" y="-21.0" type="curve"/>
      <point x="787.0" y="-18.0"/>
      <point x="905.0" y="92.0"/>
      <point x="905.0" y="286.0" type="curve" smooth="yes"/>
      <point x="905.0" y="482.0"/>
      <point x="811.0" y="555.0"/>
      <point x="567.0" y="605.0" type="curve" smooth="yes"/>
      <point x="327.0" y="654.0"/>
      <point x="263.0" y="677.0"/>
      <point x="263.0" y="774.0" type="curve" smooth="yes"/>
      <point x="263.0" y="893.0"/>
      <point x="390.0" y="911.0"/>
      <point x="491.0" y="911.0" type="curve" smooth="yes"/>
      <point x="609.0" y="911.0"/>
      <point x="735.0" y="870.0"/>
      <point x="793.0" y="848.0" type="curve"/>
      <point x="821.0" y="848.0" type="line"/>
      <point x="832.0" y="980.0" type="line"/>
      <point x="743.0" y="1022.0"/>
      <point x="645.0" y="1055.0"/>
      <point x="476.0" y="1055.0" type="curve" smooth="yes"/>
      <point x="223.0" y="1055.0"/>
      <point x="89.0" y="948.0"/>
      <point x="89.0" y="766.0" type="curve" smooth="yes"/>
      <point x="89.0" y="564.0"/>
      <point x="286.0" y="511.0"/>
      <point x="493.0" y="468.0" type="curve" smooth="yes"/>
      <point x="714.0" y="422.0"/>
      <point x="740.0" y="371.0"/>
      <point x="740.0" y="288.0" type="curve" smooth="yes"/>
      <point x="740.0" y="168.0"/>
      <point x="649.0" y="123.0"/>
      <point x="479.0" y="123.0" type="curve" smooth="yes"/>
      <point x="329.0" y="123.0"/>
      <point x="219.0" y="162.0"/>
      <point x="145.0" y="196.0" type="curve"/>
      <point x="118.0" y="196.0" type="line"/>
      <point x="93.0" y="71.0" type="line"/>
      <point x="196.0" y="9.0"/>
      <point x="353.0" y="-21.0"/>
    </contour>
  </outline>
</glyph>
<glyph name="t" format="1">
  <advance width="794"/>
  <unicode hex="0074"/>
  <outline>
    <contour>
      <point x="493" y="-13" type="curve" smooth="yes"/>
      <point x="567" y="-13"/>
      <point x="607" y="-8"/>
      <point x="674" y="5" type="curve"/>
      <point x="674" y="133" type="line"/>
      <point x="674" y="133"/>
      <point x="568" y="117"/>
      <point x="502" y="117" type="curve" smooth="yes"/>
      <point x="385" y="117"/>
      <point x="337" y="167"/>
      <point x="337" y="318" type="curve" smooth="yes"/>
      <point x="337" y="908" type="line"/>
      <point x="674" y="908" type="line"/>
      <point x="674" y="1032" type="line"/>
      <point x="337" y="1032" type="line"/>
      <point x="337" y="1352" type="line"/>
      <point x="159" y="1285" type="line"/>
      <point x="159" y="1032" type="line"/>
      <point x="17" y="1032" type="line"/>
      <point x="17" y="908" type="line"/>
      <point x="159" y="908" type="line"/>
      <point x="159" y="328" type="line" smooth="yes"/>
      <point x="159" y="91"/>
      <point x="245" y="-13"/>
    </contour>
  </outline>
</glyph>
<glyph name="u" format="1">
  <advance width="1131"/>
  <unicode hex="0075"/>
  <outline>
    <contour>
      <point x="464" y="-21" type="curve" smooth="yes"/>
      <point x="607" y="-21"/>
      <point x="755" y="23"/>
      <point x="840" y="154" type="curve"/>
      <point x="840" y="0" type="line"/>
      <point x="1018" y="0" type="line"/>
      <point x="1018" y="1032" type="line"/>
      <point x="840" y="1032" type="line"/>
      <point x="840" y="286" type="line" smooth="yes"/>
      <point x="840" y="243"/>
      <point x="694" y="120"/>
      <point x="510" y="120" type="curve" smooth="yes"/>
      <point x="407" y="120"/>
      <point x="286" y="161"/>
      <point x="286" y="326" type="curve" smooth="yes"/>
      <point x="286" y="1032" type="line"/>
      <point x="108" y="1032" type="line"/>
      <point x="108" y="341" type="line" smooth="yes"/>
      <point x="108" y="97"/>
      <point x="268" y="-21"/>
    </contour>
  </outline>
</glyph>
<glyph name="v" format="1">
  <advance width="1058"/>
  <unicode hex="0076"/>
  <outline>
    <contour>
      <point x="424.0" y="0.0" type="line"/>
      <point x="641.0" y="0.0" type="line"/>
      <point x="1055.0" y="1032.0" type="line"/>
      <point x="853.0" y="1032.0" type="line"/>
      <point x="765.0" y="784.0"/>
      <point x="678.0" y="534.0"/>
      <point x="589.0" y="287.0" type="curve"/>
      <point x="572.0" y="240.0"/>
      <point x="555.0" y="193.0"/>
      <point x="538.0" y="146.0" type="curve"/>
      <point x="536.0" y="146.0" type="line"/>
      <point x="518.0" y="193.0"/>
      <point x="500.0" y="240.0"/>
      <point x="482.0" y="287.0" type="curve"/>
      <point x="385.0" y="535.0"/>
      <point x="289.0" y="784.0"/>
      <point x="193.0" y="1032.0" type="curve"/>
      <point x="3.0" y="1032.0" type="line"/>
    </contour>
  </outline>
</glyph>
<glyph name="w" format="1">
  <advance width="1657"/>
  <unicode hex="0077"/>
  <outline>
    <contour>
      <point x="376.0" y="0.0" type="line"/>
      <point x="596.0" y="0.0" type="line"/>
      <point x="841.0" y="870.0" type="line"/>
      <point x="844.0" y="870.0" type="line"/>
      <point x="1067.0" y="0.0" type="line"/>
      <point x="1281.0" y="0.0" type="line"/>
      <point x="1598.0" y="1032.0" type="line"/>
      <point x="1407.0" y="1032.0" type="line"/>
      <point x="1346.0" y="806.0"/>
      <point x="1285.0" y="563.0"/>
      <point x="1224.0" y="330.0" type="curve"/>
      <point x="1209.0" y="275.0"/>
      <point x="1195.0" y="221.0"/>
      <point x="1180.0" y="167.0" type="curve"/>
      <point x="1166.0" y="221.0"/>
      <point x="1152.0" y="275.0"/>
      <point x="1137.0" y="330.0" type="curve"/>
      <point x="1075.0" y="565.0"/>
      <point x="1008.0" y="805.0"/>
      <point x="945.0" y="1032.0" type="curve"/>
      <point x="719.0" y="1032.0" type="line"/>
      <point x="656.0" y="803.0"/>
      <point x="591.0" y="559.0"/>
      <point x="529.0" y="323.0" type="curve"/>
      <point x="514.0" y="267.0"/>
      <point x="499.0" y="212.0"/>
      <point x="485.0" y="157.0" type="curve"/>
      <point x="484.0" y="157.0" type="line"/>
      <point x="469.0" y="212.0"/>
      <point x="455.0" y="267.0"/>
      <point x="440.0" y="323.0" type="curve"/>
      <point x="376.0" y="559.0"/>
      <point x="309.0" y="803.0"/>
      <point x="246.0" y="1032.0" type="curve"/>
      <point x="61.0" y="1032.0" type="line"/>
    </contour>
  </outline>
</glyph>
<glyph name="x" format="1">
  <advance width="1149"/>
  <unicode hex="0078"/>
  <outline>
    <contour>
      <point x="49.0" y="0.0" type="line"/>
      <point x="260.0" y="0.0" type="line"/>
      <point x="526.0" y="334.0" type="line"/>
      <point x="581.0" y="398.0" type="line"/>
      <point x="598.0" y="377.0"/>
      <point x="615.0" y="355.0"/>
      <point x="631.0" y="334.0" type="curve" smooth="yes"/>
      <point x="720.0" y="222.0"/>
      <point x="811.0" y="112.0"/>
      <point x="901.0" y="0.0" type="curve"/>
      <point x="1105.0" y="0.0" type="line"/>
      <point x="680.0" y="511.0" type="line"/>
      <point x="1109.0" y="1032.0" type="line"/>
      <point x="896.0" y="1032.0" type="line"/>
      <point x="815.0" y="931.0"/>
      <point x="735.0" y="829.0"/>
      <point x="653.0" y="729.0" type="curve"/>
      <point x="627.0" y="697.0"/>
      <point x="601.0" y="665.0"/>
      <point x="575.0" y="634.0" type="curve"/>
      <point x="549.0" y="666.0"/>
      <point x="523.0" y="697.0"/>
      <point x="497.0" y="729.0" type="curve"/>
      <point x="415.0" y="829.0"/>
      <point x="335.0" y="931.0"/>
      <point x="254.0" y="1032.0" type="curve"/>
      <point x="45.0" y="1032.0" type="line"/>
      <point x="475.0" y="513.0" type="line"/>
    </contour>
  </outline>
</glyph>
<glyph name="y" format="1">
  <advance width="1052"/>
  <unicode hex="0079"/>
  <outline>
    <contour>
      <point x="286" y="-389" type="curve"/>
      <point x="472" y="-389" type="line"/>
      <point x="473" y="-390"/>
      <point x="551" y="-231"/>
      <point x="603" y="-102" type="curve" smooth="yes"/>
      <point x="1059" y="1032" type="line"/>
      <point x="856" y="1032" type="line"/>
      <point x="529" y="161" type="line"/>
      <point x="194" y="1032" type="line"/>
      <point x="3" y="1032" type="line"/>
      <point x="442" y="-54" type="line"/>
      <point x="393" y="-181"/>
      <point x="340" y="-294"/>
    </contour>
  </outline>
</glyph>
<glyph name="z" format="1">
  <advance width="995"/>
  <unicode hex="007A"/>
  <outline>
    <contour>
      <point x="96" y="0" type="line"/>
      <point x="901" y="0" type="line"/>
      <point x="901" y="120" type="line"/>
      <point x="254" y="120" type="line"/>
      <point x="894" y="882" type="line"/>
      <point x="894" y="1030" type="line"/>
      <point x="122" y="1030" type="line"/>
      <point x="122" y="908" type="line"/>
      <point x="723" y="908" type="line"/>
      <point x="96" y="165" type="line"/>
    </contour>
  </outline>
</glyph>
<glyph name="braceright" format="1">
  <advance width="778"/>
  <unicode hex="007D"/>
  <outline>
    <contour>
      <point x="2" y="-143" type="line"/>
      <point x="89" y="-143" type="line" smooth="yes"/>
      <point x="345" y="-143"/>
      <point x="474" y="-108"/>
      <point x="474" y="156" type="curve" smooth="yes"/>
      <point x="474" y="322" type="line" smooth="yes"/>
      <point x="474" y="531"/>
      <point x="558" y="627"/>
      <point x="783" y="627" type="curve"/>
      <point x="783" y="788" type="line"/>
      <point x="558" y="788"/>
      <point x="474" y="884"/>
      <point x="474" y="1093" type="curve" smooth="yes"/>
      <point x="474" y="1258" type="line" smooth="yes"/>
      <point x="474" y="1522"/>
      <point x="345" y="1559"/>
      <point x="89" y="1559" type="curve" smooth="yes"/>
      <point x="2" y="1559" type="line"/>
      <point x="2" y="1425" type="line"/>
      <point x="158" y="1425" type="line" smooth="yes"/>
      <point x="283" y="1425"/>
      <point x="296" y="1387"/>
      <point x="296" y="1283" type="curve" smooth="yes"/>
      <point x="296" y="1100" type="line" smooth="yes"/>
      <point x="296" y="876"/>
      <point x="375" y="760"/>
      <point x="534" y="711" type="curve"/>
      <point x="534" y="704" type="line"/>
      <point x="375" y="655"/>
      <point x="296" y="540"/>
      <point x="296" y="316" type="curve" smooth="yes"/>
      <point x="296" y="141" type="line" smooth="yes"/>
      <point x="296" y="37"/>
      <point x="283" y="-11"/>
      <point x="158" y="-11" type="curve" smooth="yes"/>
      <point x="2" y="-11" type="line"/>
    </contour>
  </outline>
</glyph>
<glyph name="asciitilde" format="1">
  <advance width="1347"/>
  <unicode hex="007E"/>
  <outline>
    <contour>
      <point x="961" y="309" type="curve" smooth="yes"/>
      <point x="1188" y="309"/>
      <point x="1268" y="474"/>
      <point x="1284" y="770" type="curve"/>
      <point x="1104" y="804" type="line"/>
      <point x="1104" y="636"/>
      <point x="1076" y="501"/>
      <point x="966" y="501" type="curve" smooth="yes"/>
      <point x="782" y="501"/>
      <point x="568" y="812"/>
      <point x="368" y="812" type="curve" smooth="yes"/>
      <point x="202" y="812"/>
      <point x="80" y="690"/>
      <point x="64" y="358" type="curve"/>
      <point x="242" y="316" type="line"/>
      <point x="242" y="507"/>
      <point x="290" y="614"/>
      <point x="376" y="614" type="curve" smooth="yes"/>
      <point x="471" y="614"/>
      <point x="693" y="309"/>
    </contour>
  </outline>
</glyph>
<glyph name="yen" format="1">
  <advance width="1465"/>
  <unicode hex="00A5"/>
  <outline>
    <contour>
      <point x="626" y="0" type="line"/>
      <point x="804" y="0" type="line"/>
      <point x="804" y="361" type="line"/>
      <point x="1214" y="361" type="line"/>
      <point x="1214" y="454" type="line"/>
      <point x="804" y="454" type="line"/>
      <point x="804" y="621" type="line"/>
      <point x="1214" y="621" type="line"/>
      <point x="1214" y="714" type="line"/>
      <point x="810" y="714" type="line"/>
      <point x="1398" y="1481" type="line"/>
      <point x="1203" y="1481" type="line"/>
      <point x="716" y="823" type="line"/>
      <point x="255" y="1481" type="line"/>
      <point x="66" y="1481" type="line"/>
      <point x="614" y="714" type="line"/>
      <point x="228" y="714" type="line"/>
      <point x="228" y="621" type="line"/>
      <point x="626" y="621" type="line"/>
      <point x="626" y="454" type="line"/>
      <point x="228" y="454" type="line"/>
      <point x="228" y="361" type="line"/>
      <point x="626" y="361" type="line"/>
    </contour>
  </outline>
</glyph>
<glyph name="copyright" format="1">
  <advance width="1726"/>
  <unicode hex="00A9"/>
  <outline>
    <contour>
      <point x="887" y="217" type="curve" smooth="yes"/>
      <point x="985" y="217"/>
      <point x="1074" y="239"/>
      <point x="1165" y="302" type="curve"/>
      <point x="1119" y="378" type="line"/>
      <point x="1119" y="378"/>
      <point x="1015" y="306"/>
      <point x="900" y="306" type="curve" smooth="yes"/>
      <point x="740" y="306"/>
      <point x="599" y="405"/>
      <point x="599" y="625" type="curve" smooth="yes"/>
      <point x="599" y="845"/>
      <point x="745" y="937"/>
      <point x="872" y="937" type="curve" smooth="yes"/>
      <point x="963" y="937"/>
      <point x="997" y="929"/>
      <point x="1104" y="866" type="curve"/>
      <point x="1139" y="939" type="line"/>
      <point x="1056" y="1002"/>
      <point x="960" y="1027"/>
      <point x="865" y="1027" type="curve" smooth="yes"/>
      <point x="633" y="1027"/>
      <point x="475" y="873"/>
      <point x="475" y="627" type="curve" smooth="yes"/>
      <point x="475" y="324"/>
      <point x="691" y="217"/>
    </contour>
    <contour>
      <point x="862" y="-23" type="curve" smooth="yes"/>
      <point x="526" y="-23"/>
      <point x="199" y="242"/>
      <point x="199" y="622" type="curve" smooth="yes"/>
      <point x="199" y="987"/>
      <point x="511" y="1267"/>
      <point x="862" y="1267" type="curve" smooth="yes"/>
      <point x="1199" y="1267"/>
      <point x="1521" y="999"/>
      <point x="1521" y="621" type="curve" smooth="yes"/>
      <point x="1521" y="248"/>
      <point x="1201" y="-23"/>
    </contour>
    <contour>
      <point x="862" y="-125" type="curve" smooth="yes"/>
      <point x="1286" y="-125"/>
      <point x="1639" y="219"/>
      <point x="1639" y="622" type="curve" smooth="yes"/>
      <point x="1639" y="1030"/>
      <point x="1274" y="1370"/>
      <point x="862" y="1370" type="curve" smooth="yes"/>
      <point x="438" y="1370"/>
      <point x="86" y="1025"/>
      <point x="86" y="622" type="curve" smooth="yes"/>
      <point x="86" y="195"/>
      <point x="454" y="-125"/>
    </contour>
  </outline>
</glyph>
<glyph name="ordfeminine" format="1">
  <advance width="791"/>
  <unicode hex="00AA"/>
  <outline>
    <contour>
      <point x="309" y="655" type="curve" smooth="yes"/>
      <point x="402" y="655"/>
      <point x="495" y="690"/>
      <point x="552" y="747" type="curve"/>
      <point x="554" y="747" type="line"/>
      <point x="554" y="669" type="line"/>
      <point x="697" y="669" type="line"/>
      <point x="697" y="1140" type="line" smooth="yes"/>
      <point x="697" y="1327"/>
      <point x="631" y="1429"/>
      <point x="394" y="1429" type="curve" smooth="yes"/>
      <point x="274" y="1429"/>
      <point x="185" y="1404"/>
      <point x="112" y="1368" type="curve"/>
      <point x="146" y="1257" type="line"/>
      <point x="222" y="1291"/>
      <point x="295" y="1309"/>
      <point x="397" y="1309" type="curve" smooth="yes"/>
      <point x="522" y="1309"/>
      <point x="554" y="1260"/>
      <point x="554" y="1125" type="curve"/>
      <point x="260" y="1125"/>
      <point x="86" y="1069"/>
      <point x="86" y="878" type="curve" smooth="yes"/>
      <point x="86" y="714"/>
      <point x="210" y="655"/>
    </contour>
    <contour>
      <point x="336" y="776" type="curve" smooth="yes"/>
      <point x="243" y="776"/>
      <point x="224" y="837"/>
      <point x="224" y="891" type="curve" smooth="yes"/>
      <point x="224" y="976"/>
      <point x="325" y="1025"/>
      <point x="554" y="1025" type="curve"/>
      <point x="554" y="882" type="line"/>
      <point x="533" y="845"/>
      <point x="434" y="776"/>
    </contour>
  </outline>
</glyph>
<glyph name="guillemotleft" format="1">
  <advance width="876"/>
  <unicode hex="00AB"/>
  <outline>
    <contour>
      <point x="466" y="162" type="curve"/>
      <point x="466" y="350" type="line"/>
      <point x="151" y="582" type="line"/>
      <point x="466" y="819" type="line"/>
      <point x="466" y="1019" type="line"/>
      <point x="466" y="1019"/>
      <point x="101" y="720"/>
      <point x="-2" y="635" type="curve"/>
      <point x="-2" y="533" type="line"/>
      <point x="100" y="457"/>
      <point x="466" y="162"/>
    </contour>
    <contour>
      <point x="873" y="162" type="curve"/>
      <point x="873" y="350" type="line"/>
      <point x="557" y="582" type="line"/>
      <point x="873" y="819" type="line"/>
      <point x="873" y="1019" type="line"/>
      <point x="873" y="1019"/>
      <point x="507" y="720"/>
      <point x="404" y="635" type="curve"/>
      <point x="404" y="533" type="line"/>
      <point x="506" y="457"/>
      <point x="873" y="162"/>
    </contour>
  </outline>
</glyph>
<glyph name="uni00AD" format="1">
  <advance width="776"/>
  <unicode hex="00AD"/>
  <outline>
    <contour>
      <point x="99" y="519" type="line"/>
      <point x="677" y="519" type="line"/>
      <point x="677" y="630" type="line"/>
      <point x="99" y="630" type="line"/>
    </contour>
  </outline>
</glyph>
<glyph name="registered" format="1">
  <advance width="1726"/>
  <unicode hex="00AE"/>
  <outline>
    <contour>
      <point x="553" y="233" type="line"/>
      <point x="672" y="233" type="line"/>
      <point x="672" y="590" type="line"/>
      <point x="877" y="590" type="line"/>
      <point x="1120" y="233" type="line"/>
      <point x="1220" y="233" type="line"/>
      <point x="1220" y="276" type="line"/>
      <point x="992" y="605" type="line"/>
      <point x="1103" y="614"/>
      <point x="1190" y="691"/>
      <point x="1190" y="824" type="curve" smooth="yes"/>
      <point x="1190" y="1019"/>
      <point x="1014" y="1055"/>
      <point x="842" y="1055" type="curve" smooth="yes"/>
      <point x="553" y="1055" type="line"/>
    </contour>
    <contour>
      <point x="672" y="680" type="line"/>
      <point x="672" y="963" type="line"/>
      <point x="844" y="963" type="line" smooth="yes"/>
      <point x="1071" y="963"/>
      <point x="1075" y="901"/>
      <point x="1075" y="810" type="curve" smooth="yes"/>
      <point x="1075" y="733"/>
      <point x="1010" y="680"/>
      <point x="898" y="680" type="curve" smooth="yes"/>
    </contour>
    <contour>
      <point x="862" y="-23" type="curve" smooth="yes"/>
      <point x="526" y="-23"/>
      <point x="199" y="242"/>
      <point x="199" y="622" type="curve" smooth="yes"/>
      <point x="199" y="987"/>
      <point x="511" y="1267"/>
      <point x="862" y="1267" type="curve" smooth="yes"/>
      <point x="1199" y="1267"/>
      <point x="1521" y="999"/>
      <point x="1521" y="621" type="curve" smooth="yes"/>
      <point x="1521" y="248"/>
      <point x="1201" y="-23"/>
    </contour>
    <contour>
      <point x="862" y="-125" type="curve" smooth="yes"/>
      <point x="1286" y="-125"/>
      <point x="1639" y="219"/>
      <point x="1639" y="622" type="curve" smooth="yes"/>
      <point x="1639" y="1030"/>
      <point x="1274" y="1370"/>
      <point x="862" y="1370" type="curve" smooth="yes"/>
      <point x="438" y="1370"/>
      <point x="86" y="1025"/>
      <point x="86" y="622" type="curve" smooth="yes"/>
      <point x="86" y="195"/>
      <point x="454" y="-125"/>
    </contour>
  </outline>
</glyph>
<glyph name="degree" format="1">
  <advance width="813"/>
  <unicode hex="00B0"/>
  <outline>
    <contour>
      <point x="407" y="845" type="curve" smooth="yes"/>
      <point x="273" y="845"/>
      <point x="189" y="946"/>
      <point x="189" y="1069" type="curve" smooth="yes"/>
      <point x="189" y="1188"/>
      <point x="271" y="1290"/>
      <point x="407" y="1290" type="curve" smooth="yes"/>
      <point x="542" y="1290"/>
      <point x="624" y="1188"/>
      <point x="624" y="1069" type="curve" smooth="yes"/>
      <point x="624" y="947"/>
      <point x="542" y="845"/>
    </contour>
    <contour>
      <point x="407" y="760" type="curve" smooth="yes"/>
      <point x="587" y="760"/>
      <point x="724" y="896"/>
      <point x="724" y="1069" type="curve" smooth="yes"/>
      <point x="724" y="1240"/>
      <point x="587" y="1375"/>
      <point x="407" y="1375" type="curve" smooth="yes"/>
      <point x="230" y="1375"/>
      <point x="90" y="1241"/>
      <point x="90" y="1069" type="curve" smooth="yes"/>
      <point x="90" y="897"/>
      <point x="228" y="760"/>
    </contour>
  </outline>
</glyph>
<glyph name="paragraph" format="1">
  <advance width="1112"/>
  <unicode hex="00B6"/>
  <outline>
    <contour>
      <point x="587" y="-260" type="line"/>
      <point x="715" y="-260" type="line"/>
      <point x="715" y="1374" type="line"/>
      <point x="889" y="1374" type="line"/>
      <point x="889" y="-260" type="line"/>
      <point x="1019" y="-260" type="line"/>
      <point x="1019" y="1481" type="line"/>
      <point x="604" y="1481" type="line" smooth="yes"/>
      <point x="236" y="1481"/>
      <point x="81" y="1392"/>
      <point x="81" y="1154" type="curve" smooth="yes"/>
      <point x="81" y="912"/>
      <point x="307" y="821"/>
      <point x="574" y="821" type="curve" smooth="yes"/>
      <point x="587" y="821" type="line"/>
    </contour>
  </outline>
</glyph>
<glyph name="periodcentered" format="1">
  <advance width="483"/>
  <unicode hex="00B7"/>
  <outline>
    <contour>
      <point x="243" y="455" type="curve" smooth="yes"/>
      <point x="325" y="455"/>
      <point x="391" y="520"/>
      <point x="391" y="603" type="curve" smooth="yes"/>
      <point x="391" y="685"/>
      <point x="325" y="751"/>
      <point x="243" y="751" type="curve" smooth="yes"/>
      <point x="160" y="751"/>
      <point x="92" y="685"/>
      <point x="92" y="603" type="curve" smooth="yes"/>
      <point x="92" y="520"/>
      <point x="160" y="455"/>
    </contour>
  </outline>
</glyph>
<glyph name="guillemotright" format="1">
  <advance width="970"/>
  <unicode hex="00BB"/>
  <outline>
    <contour>
      <point x="53" y="161" type="line"/>
      <point x="53" y="161"/>
      <point x="420" y="460"/>
      <point x="523" y="545" type="curve"/>
      <point x="523" y="648" type="line"/>
      <point x="421" y="724"/>
      <point x="53" y="1019"/>
      <point x="53" y="1019" type="curve"/>
      <point x="53" y="832" type="line"/>
      <point x="370" y="600" type="line"/>
      <point x="53" y="363" type="line"/>
    </contour>
    <contour>
      <point x="459" y="161" type="line"/>
      <point x="459" y="161"/>
      <point x="825" y="460"/>
      <point x="928" y="545" type="curve"/>
      <point x="928" y="648" type="line"/>
      <point x="826" y="724"/>
      <point x="459" y="1019"/>
      <point x="459" y="1019" type="curve"/>
      <point x="459" y="832" type="line"/>
      <point x="775" y="600" type="line"/>
      <point x="459" y="363" type="line"/>
    </contour>
  </outline>
</glyph>
<glyph name="onequarter" format="1">
  <advance width="1354"/>
  <unicode hex="00BC"/>
  <outline>
    <contour>
      <point x="1163" y="0" type="line"/>
      <point x="1271" y="0" type="line"/>
      <point x="1271" y="120" type="line"/>
      <point x="1358" y="120" type="line"/>
      <point x="1358" y="223" type="line"/>
      <point x="1271" y="223" type="line"/>
      <point x="1271" y="818" type="line"/>
      <point x="1100" y="818" type="line"/>
      <point x="753" y="223" type="line"/>
      <point x="753" y="120" type="line"/>
      <point x="1163" y="120" type="line"/>
    </contour>
    <contour>
      <point x="244" y="0" type="line"/>
      <point x="371" y="0" type="line"/>
      <point x="1203" y="1429" type="line"/>
      <point x="1075" y="1429" type="line"/>
    </contour>
    <contour>
      <point x="871" y="223" type="line"/>
      <point x="1163" y="728" type="line"/>
      <point x="1163" y="223" type="line"/>
    </contour>
    <component base="one.superior" xOffset="-122"/>
  </outline>
</glyph>
<glyph name="AE" format="1">
  <advance width="1858"/>
  <unicode hex="00C6"/>
  <outline>
    <contour>
      <point x="19" y="0" type="line"/>
      <point x="211" y="0" type="line"/>
      <point x="425" y="352" type="line"/>
      <point x="998" y="352" type="line"/>
      <point x="998" y="0" type="line"/>
      <point x="1743" y="0" type="line"/>
      <point x="1743" y="133" type="line"/>
      <point x="1175" y="133" type="line"/>
      <point x="1175" y="701" type="line"/>
      <point x="1664" y="701" type="line"/>
      <point x="1664" y="834" type="line"/>
      <point x="1175" y="834" type="line"/>
      <point x="1175" y="1348" type="line"/>
      <point x="1745" y="1348" type="line"/>
      <point x="1745" y="1481" type="line"/>
      <point x="913" y="1481" type="line"/>
    </contour>
    <contour>
      <point x="502" y="485" type="line"/>
      <point x="996" y="1333" type="line"/>
      <point x="998" y="1333" type="line"/>
      <point x="998" y="485" type="line"/>
    </contour>
  </outline>
</glyph>
<glyph name="multiply" format="1">
  <advance width="1052"/>
  <unicode hex="00D7"/>
  <outline>
    <contour>
      <point x="183" y="40" type="line"/>
      <point x="525" y="385" type="line"/>
      <point x="866" y="40" type="line"/>
      <point x="974" y="146" type="line"/>
      <point x="629" y="487" type="line"/>
      <point x="974" y="830" type="line"/>
      <point x="866" y="937" type="line"/>
      <point x="525" y="593" type="line"/>
      <point x="183" y="937" type="line"/>
      <point x="77" y="830" type="line"/>
      <point x="422" y="487" type="line"/>
      <point x="77" y="146" type="line"/>
    </contour>
  </outline>
</glyph>
<glyph name="germandbls" format="1">
  <advance width="1227"/>
  <unicode hex="00DF"/>
  <outline>
    <contour>
      <point x="652" y="-5" type="curve" smooth="yes"/>
      <point x="1043" y="-5"/>
      <point x="1174" y="212"/>
      <point x="1174" y="439" type="curve" smooth="yes"/>
      <point x="1174" y="618"/>
      <point x="1108" y="812"/>
      <point x="815" y="903" type="curve"/>
      <point x="815" y="904" type="line"/>
      <point x="948" y="925"/>
      <point x="1032" y="1039"/>
      <point x="1032" y="1155" type="curve" smooth="yes"/>
      <point x="1032" y="1352"/>
      <point x="865" y="1503"/>
      <point x="605" y="1503" type="curve" smooth="yes"/>
      <point x="267" y="1503"/>
      <point x="117" y="1334"/>
      <point x="117" y="1033" type="curve" smooth="yes"/>
      <point x="117" y="0" type="line"/>
      <point x="294" y="0" type="line"/>
      <point x="294" y="1055" type="line" smooth="yes"/>
      <point x="294" y="1301"/>
      <point x="435" y="1371"/>
      <point x="588" y="1371" type="curve" smooth="yes"/>
      <point x="770" y="1371"/>
      <point x="854" y="1260"/>
      <point x="854" y="1155" type="curve" smooth="yes"/>
      <point x="854" y="1042"/>
      <point x="804" y="951"/>
      <point x="581" y="951" type="curve"/>
      <point x="581" y="835" type="line"/>
      <point x="911" y="835"/>
      <point x="990" y="604"/>
      <point x="990" y="454" type="curve" smooth="yes"/>
      <point x="990" y="304"/>
      <point x="955" y="123"/>
      <point x="616" y="123" type="curve" smooth="yes"/>
      <point x="597" y="123"/>
      <point x="501" y="129"/>
      <point x="478" y="131" type="curve"/>
      <point x="478" y="-1" type="line"/>
      <point x="520" y="-2"/>
      <point x="633" y="-5"/>
    </contour>
  </outline>
</glyph>
<glyph name="eth" format="1">
  <advance width="1923"/>
  <unicode hex="00F0"/>
  <outline>
    <contour>
      <point x="619" y="-23" type="curve" smooth="yes"/>
      <point x="918" y="-23"/>
      <point x="1126" y="187"/>
      <point x="1126" y="535" type="curve" smooth="yes"/>
      <point x="1126" y="803"/>
      <point x="1030" y="1089"/>
      <point x="848" y="1275" type="curve"/>
      <point x="1010" y="1437" type="line"/>
      <point x="917" y="1521" type="line"/>
      <point x="752" y="1358" type="line"/>
      <point x="645" y="1435"/>
      <point x="517" y="1481"/>
      <point x="368" y="1481" type="curve" smooth="yes"/>
      <point x="363" y="1481"/>
      <point x="335" y="1352"/>
      <point x="335" y="1352" type="curve"/>
      <point x="456" y="1352"/>
      <point x="558" y="1315"/>
      <point x="645" y="1252" type="curve"/>
      <point x="491" y="1100" type="line"/>
      <point x="585" y="1015" type="line"/>
      <point x="739" y="1167" type="line"/>
      <point x="851" y="1044"/>
      <point x="921" y="874"/>
      <point x="950" y="704" type="curve"/>
      <point x="874" y="854"/>
      <point x="672" y="888"/>
      <point x="585" y="888" type="curve" smooth="yes"/>
      <point x="352" y="888"/>
      <point x="123" y="732"/>
      <point x="123" y="452" type="curve" smooth="yes"/>
      <point x="123" y="164"/>
      <point x="329" y="-23"/>
    </contour>
    <contour>
      <point x="635" y="110" type="curve" smooth="yes"/>
      <point x="375" y="110"/>
      <point x="297" y="274"/>
      <point x="297" y="454" type="curve" smooth="yes"/>
      <point x="297" y="598"/>
      <point x="396" y="755"/>
      <point x="603" y="755" type="curve" smooth="yes"/>
      <point x="847" y="755"/>
      <point x="940" y="599"/>
      <point x="940" y="421" type="curve" smooth="yes"/>
      <point x="940" y="272"/>
      <point x="832" y="110"/>
    </contour>
  </outline>
</glyph>
<glyph name="oslash" format="1">
  <advance width="1180"/>
  <unicode hex="00F8"/>
  <outline>
    <contour>
      <point x="589" y="-21" type="curve" smooth="yes"/>
      <point x="845" y="-21"/>
      <point x="1092" y="132"/>
      <point x="1092" y="520" type="curve" smooth="yes"/>
      <point x="1092" y="680"/>
      <point x="1050" y="798"/>
      <point x="983" y="884" type="curve"/>
      <point x="1113" y="1032" type="line"/>
      <point x="980" y="1032" type="line"/>
      <point x="912" y="956" type="line"/>
      <point x="821" y="1029"/>
      <point x="706" y="1058"/>
      <point x="589" y="1058" type="curve" smooth="yes"/>
      <point x="349" y="1058"/>
      <point x="91" y="912"/>
      <point x="91" y="521" type="curve" smooth="yes"/>
      <point x="91" y="357"/>
      <point x="134" y="235"/>
      <point x="204" y="148" type="curve"/>
      <point x="75" y="0" type="line"/>
      <point x="207" y="0" type="line"/>
      <point x="275" y="79" type="line"/>
      <point x="364" y="10"/>
      <point x="476" y="-21"/>
    </contour>
    <contour>
      <point x="321" y="280" type="line"/>
      <point x="287" y="342"/>
      <point x="268" y="423"/>
      <point x="268" y="519" type="curve" smooth="yes"/>
      <point x="268" y="772"/>
      <point x="407" y="911"/>
      <point x="589" y="911" type="curve" smooth="yes"/>
      <point x="678" y="911"/>
      <point x="750" y="886"/>
      <point x="806" y="834" type="curve"/>
    </contour>
    <contour>
      <point x="591" y="123" type="curve" smooth="yes"/>
      <point x="509" y="123"/>
      <point x="437" y="151"/>
      <point x="383" y="201" type="curve"/>
      <point x="866" y="752" type="line"/>
      <point x="897" y="691"/>
      <point x="913" y="612"/>
      <point x="913" y="517" type="curve" smooth="yes"/>
      <point x="913" y="279"/>
      <point x="806" y="123"/>
    </contour>
  </outline>
</glyph>
<glyph name="dcroat" format="1">
  <advance width="1141"/>
  <unicode hex="0111"/>
  <outline>
    <contour>
      <point x="560" y="-30" type="curve"/>
      <point x="682" y="-29"/>
      <point x="807" y="28"/>
      <point x="850" y="119" type="curve"/>
      <point x="850" y="0" type="line"/>
      <point x="1027" y="0" type="line"/>
      <point x="1027" y="1429" type="line"/>
      <point x="850" y="1429" type="line"/>
      <point x="850" y="901" type="line"/>
      <point x="786" y="1018"/>
      <point x="636" y="1052"/>
      <point x="529" y="1052" type="curve" smooth="yes"/>
      <point x="293" y="1052"/>
      <point x="91" y="863"/>
      <point x="91" y="505" type="curve" smooth="yes"/>
      <point x="91" y="145"/>
      <point x="302" y="-30"/>
    </contour>
    <contour>
      <point x="569" y="111" type="curve" smooth="yes"/>
      <point x="359" y="111"/>
      <point x="268" y="278"/>
      <point x="268" y="516" type="curve" smooth="yes"/>
      <point x="268" y="776"/>
      <point x="396" y="911"/>
      <point x="569" y="911" type="curve" smooth="yes"/>
      <point x="704" y="911"/>
      <point x="829" y="840"/>
      <point x="850" y="786" type="curve"/>
      <point x="850" y="244" type="line"/>
      <point x="831" y="192"/>
      <point x="708" y="111"/>
    </contour>
  </outline>
</glyph>
<glyph name="dotlessi" format="1">
  <advance width="455"/>
  <unicode hex="0131"/>
  <outline>
    <contour>
      <point x="133" y="0" type="line"/>
      <point x="319" y="0" type="line"/>
      <point x="319" y="1032" type="line"/>
      <point x="133" y="1032" type="line"/>
    </contour>
  </outline>
</glyph>
<glyph name="oe" format="1">
  <advance width="1856"/>
  <unicode hex="0153"/>
  <outline>
    <contour>
      <point x="542" y="-27" type="curve" smooth="yes"/>
      <point x="750" y="-27"/>
      <point x="877" y="67"/>
      <point x="957" y="189" type="curve"/>
      <point x="1030" y="67"/>
      <point x="1201" y="-23"/>
      <point x="1374" y="-23" type="curve" smooth="yes"/>
      <point x="1594" y="-23"/>
      <point x="1688" y="45"/>
      <point x="1769" y="101" type="curve"/>
      <point x="1726" y="208" type="line"/>
      <point x="1667" y="208" type="line"/>
      <point x="1640" y="177"/>
      <point x="1579" y="117"/>
      <point x="1397" y="117" type="curve" smooth="yes"/>
      <point x="1147" y="117"/>
      <point x="1048" y="298"/>
      <point x="1048" y="465" type="curve" smooth="yes"/>
      <point x="1048" y="470" type="line"/>
      <point x="1778" y="470" type="line"/>
      <point x="1778" y="503" type="line" smooth="yes"/>
      <point x="1778" y="809"/>
      <point x="1634" y="1049"/>
      <point x="1323" y="1049" type="curve" smooth="yes"/>
      <point x="1124" y="1049"/>
      <point x="1005" y="913"/>
      <point x="949" y="820" type="curve"/>
      <point x="900" y="940"/>
      <point x="760" y="1055"/>
      <point x="547" y="1055" type="curve" smooth="yes"/>
      <point x="487" y="1055"/>
      <point x="48" y="1013"/>
      <point x="48" y="515" type="curve" smooth="yes"/>
      <point x="48" y="26"/>
      <point x="474" y="-27"/>
    </contour>
    <contour>
      <point x="545" y="119" type="curve" smooth="yes"/>
      <point x="412" y="119"/>
      <point x="223" y="199"/>
      <point x="223" y="513" type="curve" smooth="yes"/>
      <point x="223" y="829"/>
      <point x="434" y="914"/>
      <point x="538" y="914" type="curve" smooth="yes"/>
      <point x="718" y="914"/>
      <point x="864" y="842"/>
      <point x="864" y="512" type="curve" smooth="yes"/>
      <point x="864" y="210"/>
      <point x="685" y="119"/>
    </contour>
    <contour>
      <point x="1055" y="599" type="line"/>
      <point x="1072" y="710"/>
      <point x="1129" y="906"/>
      <point x="1356" y="906" type="curve" smooth="yes"/>
      <point x="1549" y="906"/>
      <point x="1611" y="728"/>
      <point x="1616" y="599" type="curve"/>
    </contour>
  </outline>
</glyph>
<glyph name="pi" format="1">
  <advance width="1206"/>
  <unicode hex="03C0"/>
  <outline>
    <contour>
      <point x="155" y="0" type="curve"/>
      <point x="413" y="0" type="line"/>
      <point x="474" y="175"/>
      <point x="476" y="544"/>
      <point x="479" y="778" type="curve"/>
      <point x="721" y="778" type="line"/>
      <point x="721" y="326" type="line" smooth="yes"/>
      <point x="721" y="142"/>
      <point x="786" y="32"/>
      <point x="917" y="9" type="curve" smooth="yes"/>
      <point x="935" y="5"/>
      <point x="953" y="3"/>
      <point x="971" y="3" type="curve" smooth="yes"/>
      <point x="991" y="3"/>
      <point x="1010" y="5"/>
      <point x="1029" y="9" type="curve"/>
      <point x="1093" y="153" type="line"/>
      <point x="1069" y="164"/>
      <point x="1046" y="187"/>
      <point x="1029" y="239" type="curve"/>
      <point x="994" y="250"/>
      <point x="976" y="289"/>
      <point x="976" y="358" type="curve" smooth="yes"/>
      <point x="976" y="778" type="line"/>
      <point x="1154" y="778" type="line"/>
      <point x="1159" y="978" type="line"/>
      <point x="328" y="978" type="line" smooth="yes"/>
      <point x="176" y="978"/>
      <point x="77" y="968"/>
      <point x="10" y="920" type="curve"/>
      <point x="19" y="721" type="line"/>
      <point x="80" y="758"/>
      <point x="145" y="778"/>
      <point x="226" y="778" type="curve"/>
      <point x="224" y="532"/>
      <point x="218" y="186"/>
    </contour>
  </outline>
</glyph>
<glyph name="endash" format="1">
  <advance width="1472"/>
  <unicode hex="2013"/>
  <outline>
    <contour>
      <point x="99" y="581" type="line"/>
      <point x="1373" y="581" type="line"/>
      <point x="1373" y="713" type="line"/>
      <point x="99" y="713" type="line"/>
    </contour>
  </outline>
</glyph>
<glyph name="emdash" format="1">
  <advance width="2118"/>
  <unicode hex="2014"/>
  <outline>
    <contour>
      <point x="99" y="581" type="line"/>
      <point x="2019" y="581" type="line"/>
      <point x="2019" y="713" type="line"/>
      <point x="99" y="713" type="line"/>
    </contour>
  </outline>
</glyph>
<glyph name="quoteleft" format="1">
  <advance width="369"/>
  <unicode hex="2018"/>
  <outline>
    <contour>
      <point x="208" y="1013" type="line"/>
      <point x="326" y="1013" type="line"/>
      <point x="229" y="1481" type="line"/>
      <point x="40" y="1481" type="line"/>
    </contour>
  </outline>
</glyph>
<glyph name="quoteright" format="1">
  <advance width="372"/>
  <unicode hex="2019"/>
  <outline>
    <contour>
      <point x="44" y="995" type="line"/>
      <point x="169" y="995" type="line"/>
      <point x="333" y="1481" type="line"/>
      <point x="143" y="1481" type="line"/>
    </contour>
  </outline>
</glyph>
<glyph name="quotedblright" format="1">
  <advance width="691"/>
  <unicode hex="201D"/>
  <outline>
    <contour>
      <point x="44" y="995" type="line"/>
      <point x="169" y="995" type="line"/>
      <point x="333" y="1481" type="line"/>
      <point x="143" y="1481" type="line"/>
    </contour>
    <contour>
      <point x="362" y="995" type="line"/>
      <point x="486" y="995" type="line"/>
      <point x="652" y="1481" type="line"/>
      <point x="461" y="1481" type="line"/>
    </contour>
  </outline>
</glyph>
<glyph name="quotedblbase" format="1">
  <advance width="834"/>
  <unicode hex="201E"/>
  <outline>
    <contour>
      <point x="38" y="-244" type="line"/>
      <point x="197" y="-244" type="line"/>
      <point x="420" y="242" type="line"/>
      <point x="136" y="242" type="line"/>
    </contour>
    <contour>
      <point x="422" y="-244" type="line"/>
      <point x="582" y="-244" type="line"/>
      <point x="805" y="242" type="line"/>
      <point x="520" y="242" type="line"/>
    </contour>
  </outline>
</glyph>
<glyph name="dagger" format="1">
  <advance width="1078"/>
  <unicode hex="2020"/>
  <outline>
    <contour>
      <point x="454" y="-49" type="line"/>
      <point x="631" y="-49" type="line"/>
      <point x="631" y="865" type="line"/>
      <point x="988" y="865" type="line"/>
      <point x="988" y="998" type="line"/>
      <point x="634" y="998" type="line"/>
      <point x="634" y="1428" type="line"/>
      <point x="458" y="1428" type="line"/>
      <point x="458" y="1000" type="line"/>
      <point x="90" y="1000" type="line"/>
      <point x="90" y="868" type="line"/>
      <point x="454" y="868" type="line"/>
    </contour>
  </outline>
</glyph>
<glyph name="daggerdbl" format="1">
  <advance width="1086"/>
  <unicode hex="2021"/>
  <outline>
    <contour>
      <point x="453" y="-49" type="line"/>
      <point x="632" y="-49" type="line"/>
      <point x="632" y="378" type="line"/>
      <point x="995" y="378" type="line"/>
      <point x="995" y="511" type="line"/>
      <point x="632" y="511" type="line"/>
      <point x="632" y="865" type="line"/>
      <point x="989" y="865" type="line"/>
      <point x="989" y="998" type="line"/>
      <point x="635" y="998" type="line"/>
      <point x="635" y="1428" type="line"/>
      <point x="455" y="1428" type="line"/>
      <point x="455" y="1000" type="line"/>
      <point x="91" y="1000" type="line"/>
      <point x="91" y="868" type="line"/>
      <point x="455" y="868" type="line"/>
      <point x="455" y="514" type="line"/>
      <point x="98" y="514" type="line"/>
      <point x="98" y="380" type="line"/>
      <point x="453" y="380" type="line"/>
    </contour>
  </outline>
</glyph>
<glyph name="bullet" format="1">
  <advance width="1061"/>
  <unicode hex="2022"/>
  <outline>
    <contour>
      <point x="532" y="217" type="curve" smooth="yes"/>
      <point x="786" y="217"/>
      <point x="973" y="405"/>
      <point x="973" y="652" type="curve" smooth="yes"/>
      <point x="973" y="896"/>
      <point x="788" y="1084"/>
      <point x="532" y="1084" type="curve" smooth="yes"/>
      <point x="279" y="1084"/>
      <point x="88" y="896"/>
      <point x="88" y="652" type="curve" smooth="yes"/>
      <point x="88" y="406"/>
      <point x="276" y="217"/>
    </contour>
  </outline>
</glyph>
<glyph name="perthousand" format="1">
  <advance width="2393"/>
  <unicode hex="2030"/>
  <outline>
    <contour>
      <point x="320" y="851" type="curve" smooth="yes"/>
      <point x="229" y="851"/>
      <point x="226" y="928"/>
      <point x="226" y="1032" type="curve" smooth="yes"/>
      <point x="226" y="1154"/>
      <point x="231" y="1227"/>
      <point x="320" y="1227" type="curve" smooth="yes"/>
      <point x="406" y="1227"/>
      <point x="418" y="1156"/>
      <point x="418" y="1045" type="curve"/>
      <point x="416" y="910"/>
      <point x="400" y="851"/>
    </contour>
    <contour>
      <point x="320" y="683" type="curve" smooth="yes"/>
      <point x="540" y="683"/>
      <point x="640" y="802"/>
      <point x="640" y="1063" type="curve" smooth="yes"/>
      <point x="640" y="1284"/>
      <point x="524" y="1391"/>
      <point x="320" y="1391" type="curve" smooth="yes"/>
      <point x="104" y="1391"/>
      <point x="-1" y="1275"/>
      <point x="-1" y="1013" type="curve" smooth="yes"/>
      <point x="-1" y="788"/>
      <point x="117" y="683"/>
    </contour>
    <contour>
      <point x="319" y="0" type="line"/>
      <point x="562" y="0" type="line"/>
      <point x="1290" y="1387" type="line"/>
      <point x="1049" y="1387" type="line"/>
    </contour>
    <contour>
      <point x="1304" y="164" type="curve" smooth="yes"/>
      <point x="1213" y="164"/>
      <point x="1206" y="241"/>
      <point x="1206" y="346" type="curve" smooth="yes"/>
      <point x="1206" y="466"/>
      <point x="1215" y="539"/>
      <point x="1304" y="539" type="curve" smooth="yes"/>
      <point x="1391" y="539"/>
      <point x="1401" y="469"/>
      <point x="1401" y="358" type="curve" smooth="yes"/>
      <point x="1400" y="223"/>
      <point x="1384" y="164"/>
    </contour>
    <contour>
      <point x="1304" y="-3" type="curve" smooth="yes"/>
      <point x="1525" y="-3"/>
      <point x="1624" y="115"/>
      <point x="1624" y="376" type="curve" smooth="yes"/>
      <point x="1624" y="597"/>
      <point x="1508" y="705"/>
      <point x="1304" y="705" type="curve" smooth="yes"/>
      <point x="1088" y="705"/>
      <point x="982" y="588"/>
      <point x="982" y="327" type="curve" smooth="yes"/>
      <point x="982" y="101"/>
      <point x="1101" y="-3"/>
    </contour>
    <contour>
      <point x="2075" y="164" type="curve" smooth="yes"/>
      <point x="1984" y="164"/>
      <point x="1979" y="242"/>
      <point x="1979" y="346" type="curve" smooth="yes"/>
      <point x="1979" y="466"/>
      <point x="1986" y="539"/>
      <point x="2075" y="539" type="curve" smooth="yes"/>
      <point x="2162" y="539"/>
      <point x="2172" y="469"/>
      <point x="2172" y="358" type="curve"/>
      <point x="2170" y="223"/>
      <point x="2155" y="164"/>
    </contour>
    <contour>
      <point x="2075" y="-3" type="curve" smooth="yes"/>
      <point x="2296" y="-3"/>
      <point x="2393" y="115"/>
      <point x="2393" y="376" type="curve" smooth="yes"/>
      <point x="2393" y="597"/>
      <point x="2279" y="705"/>
      <point x="2075" y="705" type="curve" smooth="yes"/>
      <point x="1859" y="705"/>
      <point x="1752" y="588"/>
      <point x="1752" y="327" type="curve" smooth="yes"/>
      <point x="1752" y="101"/>
      <point x="1872" y="-3"/>
    </contour>
  </outline>
</glyph>
<glyph name="guilsinglright" format="1">
  <advance width="603"/>
  <unicode hex="203A"/>
  <outline>
    <contour>
      <point x="52" y="161" type="line"/>
      <point x="52" y="161"/>
      <point x="458" y="460"/>
      <point x="561" y="545" type="curve"/>
      <point x="561" y="648" type="line"/>
      <point x="459" y="724"/>
      <point x="52" y="1019"/>
      <point x="52" y="1019" type="curve"/>
      <point x="52" y="832" type="line"/>
      <point x="408" y="600" type="line"/>
      <point x="52" y="363" type="line"/>
    </contour>
  </outline>
</glyph>
<glyph name="partialdiff" format="1">
  <advance width="1098"/>
  <unicode hex="2202"/>
  <outline>
    <contour>
      <point x="449" y="-16" type="curve" smooth="yes"/>
      <point x="789" y="-16"/>
      <point x="989" y="266"/>
      <point x="1034" y="710" type="curve"/>
      <point x="1040" y="759"/>
      <point x="1043" y="805"/>
      <point x="1043" y="850" type="curve" smooth="yes"/>
      <point x="1043" y="868"/>
      <point x="1043" y="886"/>
      <point x="1042" y="904" type="curve" smooth="yes"/>
      <point x="1028" y="1256"/>
      <point x="871" y="1431"/>
      <point x="602" y="1447" type="curve" smooth="yes"/>
      <point x="588" y="1448"/>
      <point x="574" y="1448"/>
      <point x="561" y="1448" type="curve" smooth="yes"/>
      <point x="446" y="1448"/>
      <point x="356" y="1415"/>
      <point x="285" y="1375" type="curve"/>
      <point x="263" y="1173" type="line"/>
      <point x="325" y="1210"/>
      <point x="398" y="1244"/>
      <point x="486" y="1244" type="curve" smooth="yes"/>
      <point x="506" y="1244"/>
      <point x="526" y="1242"/>
      <point x="548" y="1238" type="curve" smooth="yes"/>
      <point x="694" y="1215"/>
      <point x="775" y="1078"/>
      <point x="775" y="865" type="curve" smooth="yes"/>
      <point x="775" y="856"/>
      <point x="773" y="835"/>
      <point x="772" y="818" type="curve"/>
      <point x="769" y="818" type="line"/>
      <point x="724" y="892"/>
      <point x="638" y="954"/>
      <point x="516" y="954" type="curve" smooth="yes"/>
      <point x="252" y="954"/>
      <point x="53" y="712"/>
      <point x="53" y="397" type="curve" smooth="yes"/>
      <point x="53" y="161"/>
      <point x="199" y="-16"/>
    </contour>
    <contour>
      <point x="480" y="189" type="curve" smooth="yes"/>
      <point x="380" y="189"/>
      <point x="325" y="270"/>
      <point x="325" y="403" type="curve" smooth="yes"/>
      <point x="325" y="585"/>
      <point x="433" y="763"/>
      <point x="571" y="763" type="curve" smooth="yes"/>
      <point x="662" y="763"/>
      <point x="720" y="699"/>
      <point x="743" y="612" type="curve"/>
      <point x="717" y="380"/>
      <point x="616" y="189"/>
    </contour>
  </outline>
</glyph>
<glyph name="product" format="1">
  <advance width="1275"/>
  <unicode hex="220F"/>
  <outline>
    <contour>
      <point x="99" y="-266" type="line"/>
      <point x="276" y="-266" type="line"/>
      <point x="276" y="1297" type="line"/>
      <point x="999" y="1297" type="line"/>
      <point x="999" y="-266" type="line"/>
      <point x="1176" y="-266" type="line"/>
      <point x="1176" y="1429" type="line"/>
      <point x="99" y="1429" type="line"/>
    </contour>
  </outline>
</glyph>
<glyph name="summation" format="1">
  <advance width="1133"/>
  <unicode hex="2211"/>
  <outline>
    <contour>
      <point x="86" y="0" type="line"/>
      <point x="1044" y="0" type="line"/>
      <point x="1044" y="122" type="line"/>
      <point x="267" y="122" type="line"/>
      <point x="783" y="763" type="line"/>
      <point x="281" y="1368" type="line"/>
      <point x="1012" y="1368" type="line"/>
      <point x="1012" y="1481" type="line"/>
      <point x="108" y="1481" type="line"/>
      <point x="108" y="1377" type="line"/>
      <point x="624" y="762" type="line"/>
      <point x="86" y="98" type="line"/>
    </contour>
  </outline>
</glyph>
<glyph name="radical" format="1">
  <advance width="1030"/>
  <unicode hex="221A"/>
  <outline>
    <contour>
      <point x="470" y="-100" type="line"/>
      <point x="651" y="-100" type="line"/>
      <point x="1038" y="1481" type="line"/>
      <point x="893" y="1481" type="line"/>
      <point x="802" y="1107"/>
      <point x="701" y="637"/>
      <point x="610" y="264" type="curve" smooth="yes"/>
      <point x="555" y="36" type="line"/>
      <point x="555" y="36"/>
      <point x="510" y="200"/>
      <point x="491" y="256" type="curve"/>
      <point x="322" y="814" type="line"/>
      <point x="0" y="773" type="line"/>
      <point x="12" y="650" type="line"/>
      <point x="220" y="678" type="line"/>
    </contour>
  </outline>
</glyph>
<glyph name="infinity" format="1">
  <advance width="1532"/>
  <unicode hex="221E"/>
  <outline>
    <contour>
      <point x="1119" y="203" type="curve" smooth="yes"/>
      <point x="1301" y="203"/>
      <point x="1442" y="354"/>
      <point x="1442" y="551" type="curve" smooth="yes"/>
      <point x="1442" y="758"/>
      <point x="1317" y="897"/>
      <point x="1124" y="898" type="curve" smooth="yes"/>
      <point x="976" y="898"/>
      <point x="858" y="769"/>
      <point x="769" y="641" type="curve"/>
      <point x="678" y="782"/>
      <point x="556" y="903"/>
      <point x="414" y="903" type="curve" smooth="yes"/>
      <point x="225" y="903"/>
      <point x="90" y="751"/>
      <point x="90" y="558" type="curve" smooth="yes"/>
      <point x="90" y="351"/>
      <point x="222" y="209"/>
      <point x="411" y="209" type="curve" smooth="yes"/>
      <point x="553" y="209"/>
      <point x="672" y="329"/>
      <point x="767" y="466" type="curve"/>
      <point x="869" y="311"/>
      <point x="988" y="203"/>
    </contour>
    <contour>
      <point x="414" y="337" type="curve" smooth="yes"/>
      <point x="311" y="337"/>
      <point x="221" y="427"/>
      <point x="221" y="556" type="curve" smooth="yes"/>
      <point x="221" y="683"/>
      <point x="307" y="778"/>
      <point x="410" y="778" type="curve" smooth="yes"/>
      <point x="508" y="778"/>
      <point x="638" y="668"/>
      <point x="710" y="553" type="curve"/>
      <point x="639" y="445"/>
      <point x="507" y="337"/>
    </contour>
    <contour>
      <point x="1133" y="330" type="curve" smooth="yes"/>
      <point x="1044" y="330"/>
      <point x="905" y="428"/>
      <point x="822" y="551" type="curve"/>
      <point x="888" y="653"/>
      <point x="1035" y="772"/>
      <point x="1130" y="772" type="curve" smooth="yes"/>
      <point x="1232" y="772"/>
      <point x="1320" y="692"/>
      <point x="1320" y="549" type="curve" smooth="yes"/>
      <point x="1320" y="414"/>
      <point x="1235" y="330"/>
    </contour>
  </outline>
</glyph>
<glyph name="integral" format="1">
  <advance width="716"/>
  <unicode hex="222B"/>
  <outline>
    <contour>
      <point x="136" y="-409" type="curve" smooth="yes"/>
      <point x="343" y="-409"/>
      <point x="431" y="-284"/>
      <point x="440" y="-38" type="curve"/>
      <point x="440" y="1066" type="line" smooth="yes"/>
      <point x="440" y="1292"/>
      <point x="469" y="1389"/>
      <point x="592" y="1389" type="curve" smooth="yes"/>
      <point x="623" y="1389"/>
      <point x="690" y="1380"/>
      <point x="720" y="1367" type="curve"/>
      <point x="720" y="1500" type="line"/>
      <point x="687" y="1511"/>
      <point x="641" y="1518"/>
      <point x="587" y="1518" type="curve" smooth="yes"/>
      <point x="362" y="1518"/>
      <point x="250" y="1371"/>
      <point x="250" y="1103" type="curve" smooth="yes"/>
      <point x="250" y="9" type="line" smooth="yes"/>
      <point x="250" y="-224"/>
      <point x="197" y="-266"/>
      <point x="111" y="-266" type="curve" smooth="yes"/>
      <point x="80" y="-266"/>
      <point x="27" y="-257"/>
      <point x="-4" y="-244" type="curve"/>
      <point x="-4" y="-386" type="line"/>
      <point x="31" y="-398"/>
      <point x="79" y="-409"/>
    </contour>
  </outline>
</glyph>
<glyph name="greaterequal" format="1">
  <advance width="1049"/>
  <unicode hex="2265"/>
  <outline>
    <contour>
      <point x="109" y="220" type="line"/>
      <point x="945" y="605" type="line"/>
      <point x="945" y="753" type="line"/>
      <point x="109" y="1151" type="line"/>
      <point x="109" y="959" type="line"/>
      <point x="744" y="678" type="line"/>
      <point x="109" y="411" type="line"/>
    </contour>
    <contour>
      <point x="93" y="1" type="line"/>
      <point x="956" y="1" type="line"/>
      <point x="956" y="168" type="line"/>
      <point x="93" y="168" type="line"/>
    </contour>
  </outline>
</glyph>
<glyph name="dblgravecmb" format="1">
  <advance width="661"/>
  <outline>
    <contour>
      <point x="293" y="1122" type="line"/>
      <point x="412" y="1122" type="line"/>
      <point x="212" y="1465" type="line"/>
      <point x="3" y="1465" type="line"/>
    </contour>
    <contour>
      <point x="541" y="1122" type="line"/>
      <point x="659" y="1122" type="line"/>
      <point x="471" y="1465" type="line"/>
      <point x="292" y="1465" type="line"/>
    </contour>
  </outline>
</glyph>
<glyph name="one.superior" format="1">
  <advance width="578"/>
  <outline>
    <contour>
      <point x="91" y="552" type="line"/>
      <point x="507" y="552" type="line"/>
      <point x="507" y="653" type="line"/>
      <point x="366" y="653" type="line"/>
      <point x="366" y="1374" type="line"/>
      <point x="216" y="1374" type="line"/>
      <point x="195" y="1332"/>
      <point x="158" y="1296"/>
      <point x="77" y="1277" type="curve"/>
      <point x="77" y="1194" type="line"/>
      <point x="232" y="1240" type="line"/>
      <point x="232" y="653" type="line"/>
      <point x="91" y="653" type="line"/>
    </contour>
  </outline>
</glyph>
